<svg width="392" height="231" viewBox="0 0 392 231" fill="none" xmlns="http://www.w3.org/2000/svg">
<path d="M147.969 141.028C148.786 139.538 150.008 138.309 151.494 137.486C152.98 136.662 154.67 136.276 156.368 136.372C162.644 136.713 174.657 139.289 192.068 151.227C192.068 151.227 201.551 157.755 199.051 165.296C196.551 172.837 188.91 172.085 176.348 165.539C170.162 162.288 163.523 159.985 156.656 158.708C153.707 158.203 151.051 156.613 149.21 154.251C146.849 151.19 144.958 146.577 147.969 141.028Z" fill="white"/>
<path d="M197.06 169.438C198.235 168.362 199.097 166.988 199.553 165.46C202.148 157.632 192.77 151.062 192.366 150.783C175.359 139.124 163.418 136.217 156.394 135.834C154.596 135.737 152.808 136.149 151.235 137.022C149.662 137.895 148.367 139.195 147.5 140.771C144.312 146.651 146.429 151.518 148.776 154.563C150.696 157.033 153.471 158.695 156.552 159.222C163.368 160.495 169.957 162.783 176.1 166.008C185.173 170.733 191.22 172.198 195.136 170.614C195.838 170.332 196.489 169.935 197.06 169.438ZM150.298 138.971C151.963 137.53 154.122 136.79 156.323 136.905C161.972 137.204 174.09 139.52 191.769 151.662C191.839 151.742 200.884 158.058 198.53 165.134C197.766 167.435 196.523 168.909 194.704 169.654C191.15 171.086 185.215 169.596 176.564 165.09C170.325 161.815 163.633 159.491 156.71 158.195C153.891 157.716 151.351 156.199 149.59 153.942C147.441 151.142 145.491 146.686 148.41 141.309C148.891 140.421 149.531 139.628 150.298 138.971Z" fill="black"/>
<path d="M55.6493 204.604C55.6493 204.604 43.9453 199.183 35.4014 183.393C28.6451 170.935 27.1342 163.094 13.382 154.57C-0.370094 146.046 2.05581 140.38 2.05581 140.38C2.05581 140.38 4.64665 130.454 23.6443 140.854C33.4437 146.222 41.8705 159.256 48.595 173.905C54.2608 186.245 67.6777 191.075 67.6777 191.075C67.6777 191.075 65.3369 204.978 55.6493 204.604Z" fill="white"/>
<path d="M56.0274 205.148C65.7363 205.148 68.1782 191.288 68.2048 191.17L68.2793 190.728L67.859 190.579C67.726 190.531 54.5591 185.669 49.0795 173.686C41.1421 156.393 32.6674 145.188 23.9 140.385C15.6966 135.896 9.42438 134.521 5.28012 136.328C4.41814 136.67 3.63953 137.193 2.99703 137.863C2.35452 138.532 1.86313 139.332 1.55613 140.209C1.34333 140.779 -0.412254 146.643 13.1111 155.023C23.9958 161.771 27.092 168.035 31.3853 176.703C32.4492 178.894 33.5877 181.165 34.939 183.633C43.451 199.396 55.3145 205.02 55.4316 205.073L55.5273 205.116H55.6337L56.0274 205.148ZM67.0717 191.41C66.5875 193.66 63.9276 204.082 56.0221 204.082H55.7827C54.6655 203.548 43.8287 197.839 35.8647 183.148C34.5294 180.674 33.4122 178.419 32.3322 176.218C27.9645 167.39 24.8098 161.014 13.6644 154.106C0.614502 146.019 2.5297 140.619 2.55098 140.566V140.502C2.81384 139.772 3.23154 139.108 3.77527 138.556C4.319 138.004 4.97581 137.577 5.7004 137.303C8.36039 136.179 13.5527 135.96 23.368 141.333C31.9332 146.019 40.2483 157.059 48.09 174.144C53.2291 185.28 64.7096 190.451 67.0717 191.41Z" fill="black"/>
<path d="M1.85663 140.065C1.85663 140.065 -1.33535 147.363 11.4326 153.296C11.4698 148.296 12.6988 142.634 18.0879 138.173C4.50599 132.826 1.85663 140.065 1.85663 140.065Z" fill="black"/>
<path d="M11.9423 154.133V153.301C11.9902 146.947 14.1075 142.133 18.4007 138.583L19.0977 138.007L18.2571 137.677C12.6179 135.454 8.1066 135.07 4.85078 136.536C3.30109 137.165 2.04912 138.362 1.35025 139.884C1.14809 140.417 -1.47998 147.88 11.1869 153.781L11.9423 154.133ZM17.0442 138.349C13.134 141.888 11.1177 146.521 10.8996 152.459C-0.320232 146.92 2.22804 140.55 2.34508 140.278C2.95086 139.014 4.01418 138.029 5.31894 137.522C8.11724 136.254 12.1551 136.557 17.0442 138.349Z" fill="black"/>
<path d="M128.355 227.819C120.624 227.819 114.358 219.638 114.358 209.545C114.358 199.453 120.624 191.271 128.355 191.271C136.085 191.271 142.352 199.453 142.352 209.545C142.352 219.638 136.085 227.819 128.355 227.819Z" fill="black"/>
<path d="M128.376 228.086C136.245 228.086 142.645 219.765 142.645 209.546C142.645 199.327 136.223 191 128.376 191C120.529 191 114.113 199.321 114.113 209.546C114.113 219.77 120.492 228.086 128.376 228.086ZM128.376 191.533C135.952 191.533 142.113 199.614 142.113 209.546C142.113 219.477 135.931 227.553 128.376 227.553C120.822 227.553 114.645 219.471 114.645 209.546C114.645 199.62 120.785 191.533 128.376 191.533Z" fill="black"/>
<path d="M120.54 227.819C112.81 227.819 106.543 219.638 106.543 209.545C106.543 199.453 112.81 191.271 120.54 191.271C128.271 191.271 134.537 199.453 134.537 209.545C134.537 219.638 128.271 227.819 120.54 227.819Z" fill="white"/>
<path d="M120.54 228.352C128.551 228.352 135.068 219.914 135.068 209.546C135.068 199.177 128.551 190.733 120.54 190.733C112.528 190.733 106.032 199.172 106.032 209.546C106.032 219.919 112.528 228.352 120.54 228.352ZM120.54 191.8C127.987 191.8 134.004 199.758 134.004 209.546C134.004 219.333 127.966 227.286 120.54 227.286C113.113 227.286 107.096 219.327 107.096 209.546C107.096 199.764 113.113 191.8 120.54 191.8Z" fill="black"/>
<path d="M100.951 219.866C65.8847 219.866 37.4575 192.814 37.4575 159.442C37.4575 126.071 65.8847 99.0186 100.951 99.0186C136.018 99.0186 164.445 126.071 164.445 159.442C164.445 192.814 136.018 219.866 100.951 219.866Z" fill="white"/>
<path d="M100.951 220.394C136.254 220.394 164.977 193.053 164.977 159.442C164.977 125.832 136.249 98.4854 100.951 98.4854C65.6526 98.4854 36.9247 125.832 36.9247 159.442C36.9247 193.053 65.6473 220.394 100.951 220.394ZM100.951 99.5515C135.669 99.5515 163.913 126.418 163.913 159.442C163.913 192.466 135.669 219.328 100.951 219.328C66.2325 219.328 37.9887 192.466 37.9887 159.442C37.9887 126.418 66.2325 99.5515 100.951 99.5515Z" fill="black"/>
<path d="M123.588 17.4845C125.274 13.5824 147.692 -7.35141 155.741 3.7312C161.966 12.3084 156.162 31.2165 153.214 39.3459C153.12 39.6096 152.949 39.839 152.724 40.0045C152.498 40.1699 152.228 40.2639 151.949 40.2742C151.669 40.2845 151.393 40.2108 151.156 40.0624C150.919 39.914 150.732 39.6979 150.618 39.4418C148.655 35.0546 144.82 23.9827 131.232 26.1789C128.163 26.6854 121.678 21.941 123.588 17.4845Z" fill="white"/>
<path d="M151.891 40.812H151.965C152.352 40.8007 152.726 40.6725 153.038 40.4441C153.351 40.2158 153.587 39.898 153.716 39.5326C156.573 31.6165 162.573 12.2606 156.174 3.42754C154.274 0.804815 151.492 -0.303978 147.912 0.0798352C137.846 1.19929 124.387 14.3022 123.11 17.2768C122.333 19.0733 122.721 21.1043 124.174 22.9967C126.036 25.3848 129.228 27.0534 131.303 26.7282C143.65 24.6972 147.614 33.8501 149.742 38.765C149.88 39.0902 150.013 39.394 150.135 39.6659C150.283 40.0088 150.528 40.3005 150.841 40.5044C151.153 40.7082 151.518 40.8153 151.891 40.812ZM149.252 1.06602C150.43 1.01968 151.601 1.26838 152.659 1.78961C153.717 2.31084 154.629 3.08815 155.312 4.05123C161.414 12.4631 155.509 31.4139 152.716 39.1701C152.655 39.3297 152.549 39.4678 152.41 39.5672C152.272 39.6666 152.107 39.723 151.937 39.7292C151.767 39.7355 151.598 39.6914 151.453 39.6024C151.308 39.5133 151.192 39.3834 151.12 39.2288C150.997 38.9569 150.869 38.6637 150.731 38.3439C148.651 33.5462 144.31 23.5084 131.164 25.6567C129.685 25.9019 126.807 24.5906 125.046 22.341C124.179 21.2269 123.317 19.521 124.099 17.6979C125.28 14.9259 138.517 2.19614 148.029 1.13532C148.435 1.09176 148.843 1.06863 149.252 1.06602Z" fill="black"/>
<path d="M132.224 26.0458C132.224 26.0458 141.427 7.18035 157.547 7.42024L132.224 26.0458Z" fill="white"/>
<path d="M132.697 26.2799C132.787 26.0934 141.964 7.73431 157.541 7.95287V6.88672H157.227C141.15 6.88672 131.819 25.6189 131.728 25.8108L132.697 26.2799Z" fill="black"/>
<path d="M28.7712 68.4894C28.8053 79.7548 32.3012 90.7364 38.7834 99.9408C44.3382 107.843 51.5665 114.418 59.9516 119.195C71.5514 125.802 84.6786 129.243 98.0213 129.175C109.661 129.214 121.158 126.604 131.644 121.541C141.01 117.039 149.206 110.418 155.583 102.201C162.957 92.563 167.271 80.9633 167.271 68.4894C167.271 45.3114 152.445 25.1772 130.654 14.9581C120.429 10.2126 109.29 7.77411 98.0213 7.81496C73.6133 7.81496 52.1578 18.8816 39.8208 35.5988C32.8304 45.0715 28.7712 56.3673 28.7712 68.4894Z" fill="white"/>
<path d="M98.0203 129.691C109.737 129.724 121.309 127.101 131.871 122.02C141.325 117.486 149.598 110.815 156.04 102.531C163.749 92.4506 167.818 80.675 167.818 68.489C167.802 45.844 153.657 25.1554 130.876 14.4779C120.577 9.71231 109.364 7.25633 98.0203 7.28144C74.2453 7.28144 52.327 17.751 39.3941 35.2785C32.0951 45.1723 28.2222 56.6547 28.2222 68.489C28.2684 79.8563 31.7967 90.9352 38.3301 100.228C43.9369 108.187 51.2217 114.813 59.6686 119.637C71.3534 126.296 84.5784 129.762 98.0203 129.691ZM98.0203 8.34759C109.209 8.32623 120.268 10.7531 130.424 15.4588C152.848 25.9444 166.738 46.2705 166.738 68.489C166.738 80.4405 162.743 91.9869 155.178 101.881C148.841 110.032 140.705 116.601 131.408 121.071C120.989 126.079 109.576 128.663 98.0203 128.63C84.7708 128.698 71.7356 125.281 60.2165 118.721C51.9059 113.974 44.7376 107.455 39.2186 99.6258C32.8106 90.5105 29.3492 79.644 29.3021 68.4943C29.3021 56.8893 33.09 45.6254 40.2506 35.9182C52.9813 18.6572 74.5804 8.34759 98.0203 8.34759Z" fill="black"/>
<path d="M44.0928 105.986C44.0928 105.922 44.3801 99.6154 48.8808 91.7632C53.0304 84.508 61.7232 74.4063 79.5664 67.4763L79.1834 66.4795C61.0103 73.5374 52.1526 83.8684 47.9232 91.2887C43.3214 99.3648 43.0448 105.682 43.0341 105.943L44.0928 105.986Z" fill="black"/>
<path d="M167.069 47.811C167.308 40.9503 163.345 35.4863 156.61 34.159C142.427 31.3603 102.122 26.4347 57.94 40.3053C57.94 40.3053 43.1398 42.187 46.9915 59.5599C49.2631 69.7949 52.0933 79.7474 53.3063 83.7828C54.3258 87.2925 56.4261 90.3896 59.3072 92.6318C62.4992 95.0626 67.3138 96.9657 74.3096 95.8303C88.7214 93.5434 129.196 86.2349 153.045 88.4845C158.855 89.0176 162.291 88.1327 164.515 85.6166C166.739 83.1005 167.377 80.1259 167.26 76.7089L167.069 47.811Z" fill="white"/>
<path d="M70.3133 96.7156C71.6801 96.7112 73.0445 96.5989 74.3937 96.3798C75.8195 96.1506 77.5006 95.8787 79.3892 95.5642C96.328 92.7869 131.568 87.0084 152.991 89.0234C158.96 89.5885 162.524 88.6822 164.908 85.9849C167.036 83.5647 167.93 80.6968 167.786 76.6827L167.6 47.8115C167.85 40.5563 163.578 34.991 156.715 33.637C148.586 32.0378 105.643 24.788 57.822 39.7834C57.1996 39.874 51.6562 40.7855 48.2993 45.5672C45.7989 49.1282 45.1871 53.8725 46.4745 59.6777C49.1345 71.6399 52.4276 82.7171 52.8 83.9379C53.8429 87.5583 56.0078 90.7525 58.9818 93.0588C62.2449 95.5124 66.2344 96.7999 70.3133 96.7156ZM142.963 87.5468C121.683 87.5468 93.7425 92.1312 79.219 94.5141C77.3304 94.8232 75.6493 95.1004 74.2288 95.3243C68.4566 96.2412 63.5463 95.1911 59.6255 92.2058C56.8299 90.0368 54.7953 87.0329 53.8161 83.6287C53.449 82.4133 50.1559 71.368 47.5119 59.4485C46.2936 53.9525 46.8469 49.496 49.1611 46.1909C52.3531 41.6118 57.9497 40.8602 58.0082 40.8335H58.0986C105.675 25.9075 148.421 33.1039 156.518 34.6978C162.844 35.9506 166.78 41.0947 166.546 47.8115L166.738 76.7094C166.866 80.4409 166.062 83.1063 164.12 85.2812C161.992 87.696 158.694 88.4797 153.103 87.9466C149.969 87.68 146.565 87.5468 142.963 87.5468Z" fill="black"/>
<path d="M171.4 61.5215C170.995 53.9578 169.285 46.5216 166.346 39.5429C164.074 34.2441 161.191 29.585 157.547 28.8814C148.886 27.1702 131.436 24.846 109.098 26.4612C92.9287 27.6302 76.9492 30.6712 61.4785 35.5235C61.4785 35.5235 46.8166 38.0662 50.6736 55.4391C53.706 69.1231 57.0576 81.2399 57.0576 81.2399C57.0576 81.2399 60.0102 93.5379 75.5605 91.0698C89.9882 88.7509 134.665 81.5597 158.51 83.82C164.319 84.353 170.027 79.7526 170.804 75.3814C171.4 72.0177 171.836 70.3279 171.714 66.9055L171.4 61.5215Z" fill="black"/>
<path d="M71.66 91.6297C72.986 91.6253 74.3095 91.5148 75.618 91.2992L76.2458 91.2033C90.7799 88.8897 135.01 81.8585 158.482 84.0814C164.499 84.6518 170.287 79.8168 171.064 75.4296C171.149 74.9498 171.234 74.5021 171.308 74.0756C171.842 71.723 172.075 69.3119 172 66.9004L171.686 61.5057C171.277 53.9123 169.552 46.4482 166.59 39.4471C163.738 32.789 160.796 29.2441 157.599 28.6151C150.986 27.309 133.026 24.4571 109.075 26.1896C92.887 27.3564 76.888 30.3974 61.3977 35.2518C61.3977 35.2518 55.5457 36.318 52.1569 41.3609C49.7257 44.9964 49.1405 49.7461 50.412 55.4767C53.4124 69.0061 56.7959 81.1655 56.7959 81.2881C56.7959 81.4107 59.4559 91.6297 71.66 91.6297ZM148.092 83.1005C123.679 83.1005 88.769 88.6498 76.1607 90.6542L75.5329 90.7555C60.4188 93.1543 57.445 81.6133 57.3333 81.1228C57.296 80.9896 53.9285 68.8621 50.9493 55.3274C49.7097 49.7461 50.2683 45.1403 52.6091 41.6327C55.8596 36.7764 61.4828 35.7689 61.5414 35.7369C77.0026 30.8828 92.9734 27.8418 109.134 26.6747C133.01 24.9475 150.922 27.7888 157.514 29.0895C160.525 29.6812 163.366 33.1249 166.116 39.6124C169.049 46.5605 170.752 53.967 171.149 61.5004H171.415H171.149L171.468 66.9217C171.547 69.2929 171.325 71.6644 170.808 73.9796C170.729 74.4061 170.649 74.8539 170.564 75.3337C169.824 79.5023 164.302 84.0974 158.556 83.5536C155.386 83.2551 151.864 83.1219 148.092 83.1219V83.1005Z" fill="black"/>
<path d="M85.0735 55.3898C84.1014 49.3828 85.7445 44.1182 88.7434 43.631C91.7423 43.1438 94.9613 47.6184 95.9333 53.6254C96.9054 59.6323 95.2623 64.8969 92.2634 65.3842C89.2645 65.8714 86.0455 61.3968 85.0735 55.3898Z" fill="white"/>
<path d="M131.507 50.55C130.535 44.543 132.178 39.2784 135.177 38.7912C138.176 38.3039 141.395 42.7786 142.367 48.7855C143.339 54.7925 141.696 60.0571 138.697 60.5443C135.698 61.0316 132.479 56.5569 131.507 50.55Z" fill="white"/>
<path d="M51.6848 24.5906C48.7748 21.4988 20.5789 9.47265 16.7858 22.6449C13.8545 32.8319 25.7393 48.6269 31.2774 55.2637C31.4556 55.4795 31.6941 55.6369 31.9624 55.7156C32.2307 55.7943 32.5163 55.7907 32.7825 55.7052C33.0487 55.6198 33.2832 55.4564 33.4559 55.2361C33.6285 55.0158 33.7314 54.7488 33.7512 54.4694C34.1023 49.6717 33.9374 37.9441 47.4608 35.38C50.5197 34.799 55.0045 28.1249 51.6848 24.5906Z" fill="white"/>
<path d="M32.3338 56.3035C32.5414 56.3026 32.7477 56.2702 32.9456 56.2076C33.3136 56.0933 33.638 55.8693 33.8757 55.5655C34.1133 55.2617 34.2528 54.8924 34.2756 54.5071C34.3022 54.2086 34.3182 53.8781 34.3394 53.5262C34.6693 48.1955 35.2811 38.2164 47.5596 35.9028C49.6184 35.5137 52.0603 32.8536 52.9966 29.975C53.7361 27.6935 53.4062 25.6518 52.0709 24.2285C49.8525 21.8563 32.7488 14.1427 22.9015 16.5256C19.4009 17.3732 17.1719 19.3829 16.2728 22.4907C13.2564 32.9762 25.4764 49.1444 30.8655 55.5999C31.0434 55.8183 31.2673 55.9946 31.5211 56.1163C31.7749 56.2379 32.0525 56.3019 32.3338 56.3035ZM27.0777 17.144C36.5366 17.144 49.4961 23.0451 51.2942 24.9588C52.6561 26.4034 52.422 28.3065 51.9858 29.6445C51.0974 32.3685 48.8364 34.5755 47.3627 34.8527C34.2703 37.3208 33.6 48.2221 33.2808 53.4623C33.2808 53.8088 33.2382 54.1339 33.2169 54.4271C33.2051 54.6003 33.1417 54.766 33.035 54.9028C32.9283 55.0396 32.7831 55.1412 32.6183 55.1945C32.4534 55.2479 32.2763 55.2505 32.11 55.2021C31.9436 55.1537 31.7955 55.0564 31.6848 54.9229C26.3967 48.59 14.4215 32.7843 17.2942 22.7945C18.0763 20.0759 20.05 18.3167 23.1462 17.5651C24.4359 17.2719 25.7553 17.1306 27.0777 17.144Z" fill="black"/>
<path d="M46.4844 35.582C46.4844 35.582 31.4129 20.9865 16.3414 26.7223L46.4844 35.582Z" fill="white"/>
<path d="M46.1199 35.9664L46.8594 35.1828C46.7051 35.0388 31.3676 20.4219 16.1525 26.2111L16.5302 27.208C31.1069 21.6747 45.9709 35.8225 46.1199 35.9664Z" fill="black"/>
<path d="M123.392 68.8409C123.392 68.8409 117.46 68.3078 114.268 70.1362C110.959 72.066 117.641 76.6717 117.641 76.6717C117.641 76.6717 121.226 80.1047 123.275 75.9467C125.184 72.0553 124.807 72.4978 124.807 72.4978C124.807 72.4978 126.078 69.4486 123.392 68.8409Z" fill="white"/>
<path d="M99.4415 77.5992C99.5566 77.5992 99.6686 77.5618 99.7607 77.4926C103.564 74.63 109.023 74.7686 109.081 74.7686C109.222 74.7686 109.358 74.7124 109.457 74.6125C109.557 74.5125 109.613 74.3769 109.613 74.2355C109.613 74.0941 109.557 73.9586 109.457 73.8586C109.358 73.7586 109.222 73.7024 109.081 73.7024C108.842 73.7024 103.229 73.5479 99.0904 76.6397C99.0345 76.6817 98.9874 76.7343 98.9518 76.7945C98.9162 76.8548 98.8928 76.9214 98.8829 76.9907C98.873 77.0601 98.8769 77.1306 98.8942 77.1984C98.9115 77.2662 98.942 77.33 98.984 77.386C99.0367 77.4567 99.106 77.5132 99.1859 77.5504C99.2657 77.5876 99.3536 77.6044 99.4415 77.5992Z" fill="white"/>
<path d="M100.953 71.6718C101.006 71.6798 101.059 71.6798 101.112 71.6718C103.566 70.8731 106.205 70.8507 108.672 71.6078C108.804 71.6587 108.951 71.655 109.08 71.5975C109.209 71.5401 109.31 71.4335 109.361 71.3013C109.412 71.1691 109.408 71.0221 109.351 70.8927C109.293 70.7632 109.187 70.6619 109.055 70.611C106.366 69.7508 103.473 69.7657 100.793 70.6536C100.652 70.6748 100.525 70.7513 100.44 70.8663C100.355 70.9813 100.32 71.1253 100.341 71.2667C100.362 71.408 100.438 71.5352 100.553 71.6202C100.668 71.7052 100.812 71.741 100.953 71.7198V71.6718Z" fill="white"/>
<path d="M103.453 81.0646C103.568 81.0646 103.68 81.0272 103.772 80.958C105.574 79.5802 107.598 78.5218 109.757 77.8289C109.824 77.8103 109.888 77.7787 109.943 77.7357C109.998 77.6927 110.044 77.6393 110.079 77.5784C110.113 77.5175 110.136 77.4503 110.144 77.3808C110.153 77.3113 110.148 77.2407 110.129 77.1732C110.092 77.0379 110.003 76.9228 109.881 76.8529C109.76 76.7831 109.616 76.7641 109.48 76.8C107.174 77.518 105.013 78.6387 103.096 80.1104C103.04 80.1524 102.993 80.205 102.958 80.2653C102.922 80.3255 102.899 80.3922 102.889 80.4615C102.879 80.5308 102.883 80.6014 102.9 80.6692C102.918 80.737 102.948 80.8007 102.99 80.8567C103.044 80.9272 103.114 80.9832 103.195 81.0195C103.276 81.0558 103.364 81.0713 103.453 81.0646Z" fill="white"/>
<path d="M136.936 73.3822C137.023 73.3823 137.109 73.361 137.186 73.3201C137.263 73.2792 137.329 73.22 137.377 73.1477C137.417 73.0896 137.444 73.0243 137.458 72.9556C137.472 72.8869 137.472 72.8161 137.459 72.7473C137.446 72.6785 137.419 72.613 137.38 72.5545C137.342 72.4961 137.292 72.4458 137.234 72.4067C133.51 69.8639 128.929 70.7808 128.722 70.8075C128.581 70.8364 128.457 70.9204 128.378 71.0409C128.298 71.1613 128.27 71.3084 128.299 71.4498C128.328 71.5912 128.412 71.7153 128.532 71.7947C128.652 71.8742 128.799 71.9026 128.94 71.8736C128.982 71.8736 133.254 71.0154 136.622 73.3022C136.716 73.3609 136.825 73.3889 136.936 73.3822Z" fill="white"/>
<path d="M128.615 68.7181C128.721 68.7183 128.825 68.6867 128.913 68.6274C130.699 67.5854 132.811 67.2543 134.829 67.6999C134.97 67.7296 135.117 67.7019 135.238 67.6229C135.359 67.5439 135.443 67.4201 135.473 67.2788C135.502 67.1374 135.475 66.99 135.396 66.869C135.317 66.7481 135.194 66.6634 135.052 66.6337C132.753 66.1016 130.336 66.4837 128.312 67.6999C128.219 67.7647 128.15 67.8575 128.113 67.9648C128.077 68.072 128.075 68.1882 128.109 68.2963C128.143 68.4045 128.21 68.499 128.301 68.5662C128.392 68.6334 128.502 68.6698 128.615 68.6701V68.7181Z" fill="white"/>
<path d="M134.19 77.3486C134.277 77.3488 134.363 77.3274 134.44 77.2865C134.517 77.2456 134.583 77.1864 134.632 77.1141C134.711 76.9974 134.741 76.8538 134.716 76.7149C134.69 76.5759 134.61 76.453 134.493 76.3731C132.815 75.1881 130.915 74.3558 128.907 73.9263C128.766 73.9044 128.622 73.9395 128.507 74.024C128.392 74.1085 128.315 74.2354 128.293 74.3767C128.271 74.5181 128.306 74.6624 128.39 74.7779C128.475 74.8933 128.601 74.9705 128.742 74.9924C130.589 75.4091 132.337 76.1842 133.887 77.274C133.979 77.3267 134.084 77.3526 134.19 77.3486Z" fill="white"/>
<path d="M62.5912 138.167C60.9985 137.576 59.2712 137.447 57.6088 137.797C55.9464 138.147 54.4167 138.961 53.1962 140.145C48.6795 144.516 41.2954 154.341 35.9701 174.795C35.9701 174.795 33.0867 185.941 39.9175 189.993C46.7484 194.044 52.0258 188.473 57.2234 175.301C59.766 168.787 63.2701 162.691 67.6186 157.219C69.515 154.907 70.479 151.967 70.3212 148.978C70.0977 145.108 68.5017 140.38 62.5912 138.167Z" fill="white"/>
<path d="M44.1377 191.8C44.8943 191.798 45.6456 191.672 46.3614 191.427C50.3567 190.057 53.9637 184.987 57.7196 175.472C60.246 169.01 63.721 162.962 68.0297 157.529C70.0161 155.116 71.0245 152.043 70.8546 148.92C70.6312 145.081 69.0405 140.017 62.7789 137.666C61.0923 137.046 59.2655 136.913 57.5072 137.283C55.7489 137.654 54.1301 138.513 52.8359 139.761C47.7819 144.655 40.6691 154.687 35.4661 174.635C35.3438 175.104 32.5667 186.219 39.6583 190.43C41.0009 191.283 42.5486 191.756 44.1377 191.8ZM62.4118 138.663C68.1414 140.795 69.5885 145.46 69.8013 148.983C69.948 151.842 69.0198 154.651 67.1998 156.857C62.8222 162.374 59.2916 168.515 56.7248 175.077C53.1444 184.14 49.6385 189.172 46.0156 190.414C44.1749 191.048 42.2917 190.75 40.1637 189.508C33.7797 185.712 36.4397 175.008 36.4397 174.902C41.8448 154.149 49.463 144.458 53.5168 140.529C54.6672 139.418 56.1066 138.653 57.6702 138.323C59.2339 137.993 60.8586 138.111 62.3586 138.663H62.4118Z" fill="black"/>
<path d="M78.9543 229.466C71.2241 229.466 64.9574 221.285 64.9574 211.193C64.9574 201.1 71.2241 192.919 78.9543 192.919C86.6846 192.919 92.9512 201.1 92.9512 211.193C92.9512 221.285 86.6846 229.466 78.9543 229.466Z" fill="black"/>
<path d="M78.9539 229.754C86.8169 229.754 93.2168 221.438 93.2168 211.214C93.2168 200.99 86.8328 192.674 78.9539 192.674C71.0751 192.674 64.6858 200.99 64.6858 211.214C64.6858 221.438 71.0857 229.754 78.9539 229.754ZM78.9539 193.207C86.5243 193.207 92.6848 201.283 92.6848 211.214C92.6848 221.145 86.5243 229.221 78.9539 229.221C71.3836 229.221 65.2178 221.145 65.2178 211.214C65.2178 201.283 71.3783 193.186 78.9539 193.186V193.207Z" fill="black"/>
<path d="M71.134 229.466C63.4037 229.466 57.1371 221.285 57.1371 211.193C57.1371 201.1 63.4037 192.919 71.134 192.919C78.8642 192.919 85.1309 201.1 85.1309 211.193C85.1309 221.285 78.8642 229.466 71.134 229.466Z" fill="white"/>
<path d="M71.1332 229.999C79.1451 229.999 85.6621 221.561 85.6621 211.193C85.6621 200.824 79.1451 192.386 71.1332 192.386C63.1214 192.386 56.6044 200.819 56.6044 211.193C56.6044 221.566 63.1214 229.999 71.1332 229.999ZM71.1332 193.452C78.5812 193.452 84.5981 201.411 84.5981 211.193C84.5981 220.974 78.5599 228.933 71.1332 228.933C63.7066 228.933 57.6684 220.974 57.6684 211.193C57.6684 201.411 63.7119 193.452 71.1332 193.452Z" fill="black"/>
<path d="M78.9543 229.467C71.2241 229.467 64.9574 221.286 64.9574 211.194C64.9574 201.101 71.2241 192.92 78.9543 192.92C86.6846 192.92 92.9512 201.101 92.9512 211.194C92.9512 221.286 86.6846 229.467 78.9543 229.467Z" fill="black"/>
<path d="M71.132 229.467C63.4018 229.467 57.1352 221.286 57.1352 211.194C57.1352 201.101 63.4018 192.92 71.132 192.92C78.8623 192.92 85.1289 201.101 85.1289 211.194C85.1289 221.286 78.8623 229.467 71.132 229.467Z" fill="white"/>
<path d="M249.033 138.508C247.76 137.382 246.195 136.64 244.517 136.367C242.84 136.094 241.119 136.302 239.554 136.967C233.763 139.411 223.329 145.898 210.982 163.02C210.982 163.02 204.265 172.371 209.168 178.622C214.071 184.873 221.007 181.581 230.616 171.173C235.338 166.021 240.806 161.609 246.837 158.085C249.442 156.612 251.403 154.217 252.337 151.372C253.524 147.693 253.742 142.712 249.033 138.508Z" fill="black"/>
<path d="M212.443 181.847C210.973 181.232 209.698 180.23 208.752 178.947C203.661 172.457 210.265 163.102 210.551 162.704C222.613 145.98 232.867 139.206 239.348 136.47C241.007 135.77 242.829 135.553 244.605 135.843C246.381 136.133 248.038 136.918 249.388 138.108C254.377 142.563 254.03 147.86 252.851 151.519C251.879 154.493 249.83 156.995 247.109 158.533C241.125 162.037 235.698 166.418 231.008 171.53C224.067 179.045 218.872 182.469 214.652 182.302C213.895 182.275 213.149 182.121 212.443 181.847ZM246.146 137.361C244.091 136.568 241.81 136.601 239.777 137.453C234.562 139.646 223.942 145.923 211.41 163.329C211.372 163.428 204.995 172.431 209.604 178.294C211.102 180.2 212.769 181.167 214.733 181.253C218.562 181.4 223.644 177.989 230.261 170.824C235.025 165.631 240.536 161.181 246.612 157.62C249.104 156.216 250.981 153.929 251.875 151.21C252.95 147.848 253.279 142.995 248.713 138.922C247.96 138.249 247.09 137.72 246.146 137.361Z" fill="white"/>
<path d="M336.351 205.604C336.351 205.604 348.055 200.183 356.599 184.393C363.355 171.935 364.866 164.094 378.618 155.57C392.37 147.046 389.944 141.38 389.944 141.38C389.944 141.38 387.353 131.454 368.356 141.854C358.556 147.222 350.129 160.256 343.405 174.905C337.739 187.245 324.322 192.075 324.322 192.075C324.322 192.075 326.663 205.978 336.351 205.604Z" fill="black"/>
<path d="M335.973 206.148C326.264 206.148 323.822 192.288 323.795 192.17L323.721 191.728L324.141 191.579C324.274 191.531 337.441 186.669 342.92 174.686C350.858 157.393 359.333 146.188 368.1 141.385C376.303 136.896 382.576 135.521 386.72 137.328C387.582 137.67 388.36 138.193 389.003 138.863C389.645 139.532 390.137 140.332 390.444 141.209C390.657 141.779 392.412 147.643 378.889 156.023C368.004 162.771 364.908 169.035 360.615 177.703C359.551 179.894 358.412 182.165 357.061 184.633C348.549 200.396 336.685 206.02 336.568 206.073L336.473 206.116H336.366L335.973 206.148ZM324.928 192.41C325.412 194.66 328.072 205.082 335.978 205.082H336.217C337.335 204.548 348.171 198.839 356.135 184.148C357.471 181.674 358.588 179.419 359.668 177.218C364.035 168.39 367.19 162.014 378.336 155.106C391.385 147.019 389.47 141.619 389.449 141.566V141.502C389.186 140.772 388.768 140.108 388.225 139.556C387.681 139.004 387.024 138.577 386.3 138.303C383.64 137.179 378.447 136.96 368.632 142.333C360.067 147.019 351.752 158.059 343.91 175.144C338.771 186.28 327.29 191.451 324.928 192.41Z" fill="white"/>
<path d="M389.666 145.307C388.95 147.61 386.823 150.675 381.052 153.51C380.898 148.824 379.608 143.602 374.873 139.341C381.112 137.036 384.798 137.546 386.903 138.564C388.004 139.096 388.701 139.78 389.122 140.323C389.332 140.596 389.474 140.833 389.561 140.998C389.604 141.08 389.634 141.145 389.653 141.186C389.662 141.207 389.668 141.222 389.671 141.231L389.674 141.238L389.674 141.239L389.674 141.239C389.675 141.239 389.675 141.239 389.675 141.239L389.679 141.251L389.684 141.264L389.685 141.264L389.685 141.264L389.689 141.273C389.692 141.283 389.699 141.299 389.707 141.322C389.724 141.367 389.748 141.438 389.776 141.532C389.832 141.721 389.901 142.003 389.947 142.362C390.039 143.079 390.04 144.103 389.666 145.307Z" fill="white" stroke="black"/>
<path d="M380.058 155.133V154.301C380.01 147.947 377.892 143.133 373.599 139.583L372.902 139.007L373.743 138.677C379.382 136.454 383.893 136.07 387.149 137.536C388.699 138.165 389.951 139.362 390.65 140.884C390.852 141.417 393.48 148.88 380.813 154.781L380.058 155.133ZM374.956 139.349C378.866 142.888 380.882 147.521 381.1 153.459C392.32 147.92 389.772 141.55 389.655 141.278C389.049 140.014 387.986 139.029 386.681 138.522C383.883 137.254 379.845 137.557 374.956 139.349Z" fill="white"/>
<path d="M263.645 228.819C271.376 228.819 277.642 220.638 277.642 210.545C277.642 200.453 271.376 192.271 263.645 192.271C255.915 192.271 249.648 200.453 249.648 210.545C249.648 220.638 255.915 228.819 263.645 228.819Z" fill="white"/>
<path d="M263.624 229.086C255.755 229.086 249.355 220.765 249.355 210.546C249.355 200.327 255.777 192 263.624 192C271.471 192 277.887 200.321 277.887 210.546C277.887 220.77 271.508 229.086 263.624 229.086ZM263.624 192.533C256.048 192.533 249.887 200.614 249.887 210.546C249.887 220.477 256.069 228.553 263.624 228.553C271.178 228.553 277.355 220.471 277.355 210.546C277.355 200.62 271.215 192.533 263.624 192.533Z" fill="white"/>
<path d="M271.46 228.819C279.19 228.819 285.457 220.638 285.457 210.545C285.457 200.453 279.19 192.271 271.46 192.271C263.729 192.271 257.463 200.453 257.463 210.545C257.463 220.638 263.729 228.819 271.46 228.819Z" fill="black"/>
<path d="M271.46 229.352C263.449 229.352 256.932 220.914 256.932 210.546C256.932 200.177 263.449 191.733 271.46 191.733C279.472 191.733 285.968 200.172 285.968 210.546C285.968 220.919 279.472 229.352 271.46 229.352ZM271.46 192.8C264.013 192.8 257.996 200.758 257.996 210.546C257.996 220.333 264.034 228.286 271.46 228.286C278.887 228.286 284.904 220.327 284.904 210.546C284.904 200.764 278.887 192.8 271.46 192.8Z" fill="white"/>
<path d="M291.049 220.866C326.115 220.866 354.543 193.814 354.543 160.442C354.543 127.071 326.115 100.019 291.049 100.019C255.982 100.019 227.555 127.071 227.555 160.442C227.555 193.814 255.982 220.866 291.049 220.866Z" fill="black"/>
<path d="M291.049 221.394C255.746 221.394 227.023 194.053 227.023 160.442C227.023 126.832 255.751 99.4854 291.049 99.4854C326.347 99.4854 355.075 126.832 355.075 160.442C355.075 194.053 326.353 221.394 291.049 221.394ZM291.049 100.551C256.331 100.551 228.087 127.418 228.087 160.442C228.087 193.466 256.331 220.328 291.049 220.328C325.768 220.328 354.011 193.466 354.011 160.442C354.011 127.418 325.768 100.551 291.049 100.551Z" fill="white"/>
<path d="M268.412 18.4845C266.726 14.5824 244.308 -6.35141 236.259 4.7312C230.034 13.3084 235.838 32.2165 238.786 40.3459C238.88 40.6096 239.051 40.839 239.276 41.0045C239.502 41.1699 239.772 41.2639 240.051 41.2742C240.331 41.2845 240.607 41.2108 240.844 41.0624C241.081 40.914 241.268 40.6979 241.382 40.4418C243.345 36.0546 247.18 24.9827 260.768 27.1789C263.837 27.6854 270.322 22.941 268.412 18.4845Z" fill="black"/>
<path d="M240.109 41.812H240.035C239.648 41.8007 239.274 41.6725 238.962 41.4441C238.649 41.2158 238.413 40.898 238.284 40.5326C235.427 32.6165 229.427 13.2606 235.826 4.42754C237.726 1.80482 240.508 0.696022 244.088 1.07984C254.154 2.19929 267.613 15.3022 268.89 18.2768C269.667 20.0733 269.279 22.1043 267.826 23.9967C265.964 26.3848 262.772 28.0534 260.697 27.7282C248.35 25.6972 244.386 34.8501 242.258 39.765C242.12 40.0902 241.987 40.394 241.865 40.6659C241.717 41.0088 241.472 41.3005 241.159 41.5044C240.847 41.7082 240.482 41.8153 240.109 41.812ZM242.748 2.06602C241.57 2.01968 240.399 2.26838 239.341 2.78961C238.283 3.31084 237.371 4.08815 236.688 5.05123C230.586 13.4631 236.491 32.4139 239.284 40.1701C239.345 40.3297 239.451 40.4678 239.59 40.5672C239.728 40.6666 239.893 40.723 240.063 40.7292C240.233 40.7355 240.402 40.6914 240.547 40.6024C240.692 40.5133 240.808 40.3834 240.88 40.2288C241.003 39.9569 241.131 39.6637 241.269 39.3439C243.349 34.5462 247.69 24.5084 260.836 26.6567C262.315 26.9019 265.193 25.5906 266.954 23.341C267.821 22.2269 268.683 20.521 267.901 18.6979C266.72 15.9259 253.483 3.19614 243.971 2.13532C243.565 2.09176 243.157 2.06863 242.748 2.06602Z" fill="white"/>
<path d="M259.776 27.0458C259.776 27.0458 250.573 8.18035 234.453 8.42024L259.776 27.0458Z" fill="black"/>
<path d="M259.303 27.2799C259.213 27.0934 250.036 8.73431 234.459 8.95287V7.88672H234.773C250.85 7.88672 260.181 26.6189 260.272 26.8108L259.303 27.2799Z" fill="white"/>
<path d="M363.229 69.4894C363.195 80.7548 359.699 91.7364 353.217 100.941C347.662 108.843 340.434 115.418 332.048 120.195C320.449 126.802 307.321 130.243 293.979 130.175C282.339 130.214 270.842 127.604 260.356 122.541C250.99 118.039 242.794 111.418 236.417 103.201C229.043 93.563 224.729 81.9633 224.729 69.4894C224.729 46.3114 239.555 26.1772 261.346 15.9581C271.571 11.2126 282.71 8.77411 293.979 8.81496C318.387 8.81496 339.842 19.8816 352.179 36.5988C359.17 46.0715 363.229 57.3673 363.229 69.4894Z" fill="black"/>
<path d="M293.98 130.691C282.263 130.724 270.691 128.101 260.129 123.02C250.675 118.486 242.402 111.815 235.96 103.531C228.251 93.4506 224.182 81.675 224.182 69.489C224.198 46.844 238.343 26.1554 261.124 15.4779C271.423 10.7123 282.636 8.25633 293.98 8.28144C317.755 8.28144 339.673 18.751 352.606 36.2785C359.905 46.1723 363.778 57.6547 363.778 69.489C363.732 80.8563 360.203 91.9352 353.67 101.228C348.063 109.187 340.778 115.813 332.331 120.637C320.647 127.296 307.422 130.762 293.98 130.691ZM293.98 9.34759C282.791 9.32623 271.732 11.7531 261.576 16.4588C239.152 26.9444 225.262 47.2705 225.262 69.489C225.262 81.4405 229.257 92.9869 236.822 102.881C243.159 111.032 251.295 117.601 260.592 122.071C271.011 127.079 282.424 129.663 293.98 129.63C307.229 129.698 320.264 126.281 331.783 119.721C340.094 114.974 347.262 108.455 352.781 100.626C359.189 91.5105 362.651 80.644 362.698 69.4943C362.698 57.8893 358.91 46.6254 351.749 36.9182C339.019 19.6572 317.42 9.34759 293.98 9.34759Z" fill="white"/>
<path d="M347.907 106.986C347.907 106.922 347.62 100.615 343.119 92.7632C338.97 85.508 330.277 75.4063 312.434 68.4763L312.817 67.4795C330.99 74.5374 339.847 84.8684 344.077 92.2887C348.679 100.365 348.955 106.682 348.966 106.943L347.907 106.986Z" fill="white"/>
<path d="M224.931 48.811C224.692 41.9503 228.655 36.4863 235.39 35.159C249.573 32.3603 289.878 27.4347 334.06 41.3053C334.06 41.3053 348.86 43.187 345.009 60.5599C342.737 70.7949 339.907 80.7474 338.694 84.7828C337.674 88.2925 335.574 91.3896 332.693 93.6318C329.501 96.0626 324.686 97.9657 317.69 96.8303C303.279 94.5434 262.804 87.2349 238.955 89.4845C233.145 90.0176 229.709 89.1327 227.485 86.6166C225.261 84.1005 224.623 81.1259 224.74 77.7089L224.931 48.811Z" fill="black"/>
<path d="M321.687 97.7156C320.32 97.7112 318.955 97.5989 317.606 97.3798C316.181 97.1506 314.499 96.8787 312.611 96.5642C295.672 93.7869 260.432 88.0084 239.009 90.0234C233.04 90.5885 229.476 89.6822 227.092 86.9849C224.964 84.5647 224.07 81.6968 224.214 77.6827L224.4 48.8115C224.15 41.5563 228.422 35.991 235.285 34.637C243.414 33.0378 286.357 25.788 334.178 40.7834C334.8 40.874 340.344 41.7855 343.701 46.5672C346.201 50.1282 346.813 54.8725 345.525 60.6777C342.866 72.6399 339.572 83.7171 339.2 84.9379C338.157 88.5583 335.992 91.7525 333.018 94.0588C329.755 96.5124 325.766 97.7999 321.687 97.7156ZM249.037 88.5468C270.317 88.5468 298.257 93.1312 312.781 95.5141C314.67 95.8232 316.351 96.1004 317.771 96.3243C323.543 97.2412 328.454 96.1911 332.375 93.2058C335.17 91.0368 337.205 88.0329 338.184 84.6287C338.551 83.4133 341.844 72.368 344.488 60.4485C345.706 54.9525 345.153 50.496 342.839 47.1909C339.647 42.6118 334.05 41.8602 333.992 41.8335H333.901C286.325 26.9075 243.579 34.1039 235.482 35.6978C229.156 36.9506 225.22 42.0947 225.454 48.8115L225.262 77.7094C225.134 81.4409 225.938 84.1063 227.88 86.2812C230.008 88.696 233.306 89.4797 238.897 88.9466C242.031 88.68 245.435 88.5468 249.037 88.5468Z" fill="white"/>
<path d="M221.099 62.5482L221.099 62.5506L220.786 67.929C220.684 70.798 220.979 72.4065 221.441 74.927C221.519 75.3531 221.602 75.8052 221.688 76.2939L221.099 62.5482ZM221.099 62.5482C221.501 55.0426 223.198 47.6635 226.114 40.7384C227.243 38.1055 228.513 35.6595 229.937 33.7921C231.367 31.9161 232.903 30.6899 234.548 30.3723L234.55 30.3719M221.099 62.5482L234.55 30.3719M234.55 30.3719C243.175 28.668 260.579 26.3484 282.866 27.9599L282.902 27.4613M234.55 30.3719L282.902 27.4613M282.902 27.4613L282.866 27.9599C298.997 29.1261 314.938 32.1598 330.372 37.0006L330.403 37.0105M282.902 27.4613L330.403 37.0105M330.403 37.0105L330.436 37.016M330.403 37.0105L330.436 37.016M330.436 37.016L330.436 37.0161M330.436 37.016L330.436 37.0161M330.436 37.0161L330.436 37.0161M330.436 37.0161L330.436 37.0161M330.436 37.0161L330.436 37.0162L330.442 37.0172L330.469 37.0222C330.482 37.0248 330.499 37.0282 330.52 37.0324C330.537 37.036 330.558 37.0402 330.58 37.0451C330.68 37.0665 330.828 37.1006 331.017 37.1502C331.395 37.2496 331.934 37.4112 332.571 37.6584C333.848 38.1535 335.504 38.9873 337.04 40.3415C338.572 41.6927 339.986 43.5638 340.788 46.1463C341.59 48.7302 341.787 52.0564 340.838 56.3307L340.838 56.3309C339.324 63.1659 337.729 69.6104 336.513 74.3467C335.905 76.7146 335.392 78.6551 335.031 80.0034C334.85 80.6776 334.707 81.2037 334.61 81.5611C334.561 81.7398 334.524 81.8763 334.499 81.9681L334.47 82.0718L334.463 82.098L334.461 82.1045L334.461 82.1061L334.461 82.1065C334.461 82.1066 334.461 82.1066 334.942 82.2399L334.461 82.1066L334.458 82.1148L334.456 82.1225L334.456 82.1227L334.456 82.123L334.456 82.1232L334.455 82.1273L334.45 82.1487C334.445 82.1685 334.436 82.1995 334.424 82.2407C334.401 82.3232 334.364 82.4467 334.311 82.6046C334.205 82.9205 334.036 83.3735 333.785 83.9115C333.283 84.9887 332.457 86.3986 331.163 87.7323C328.598 90.3783 324.137 92.7849 316.519 91.5761L330.436 37.0161ZM316.518 91.5759L316.443 91.5639C309.201 90.4 294.462 88.0311 278.552 86.2309C262.598 84.4256 245.423 83.1868 233.444 84.3221C230.683 84.5752 227.922 83.6085 225.749 82.0348C223.569 80.4556 222.047 78.3149 221.688 76.2942L316.518 91.5759Z" fill="white" stroke="black"/>
<path d="M320.34 92.6297C319.014 92.6253 317.69 92.5148 316.382 92.2992L315.754 92.2033C301.22 89.8897 256.99 82.8585 233.518 85.0814C227.501 85.6518 221.713 80.8168 220.936 76.4296C220.851 75.9498 220.766 75.5021 220.692 75.0756C220.158 72.723 219.925 70.3119 220 67.9004L220.314 62.5057C220.723 54.9123 222.448 47.4482 225.41 40.4471C228.262 33.789 231.204 30.2441 234.401 29.6151C241.014 28.309 258.974 25.4571 282.925 27.1896C299.113 28.3564 315.112 31.3974 330.602 36.2518C330.602 36.2518 336.454 37.318 339.843 42.3609C342.274 45.9964 342.86 50.7461 341.588 56.4767C338.588 70.0061 335.204 82.1655 335.204 82.2881C335.204 82.4107 332.544 92.6297 320.34 92.6297ZM243.908 84.1005C268.321 84.1005 303.231 89.6498 315.839 91.6542L316.467 91.7555C331.581 94.1543 334.555 82.6133 334.667 82.1228C334.704 81.9896 338.072 69.8621 341.051 56.3274C342.29 50.7461 341.732 46.1403 339.391 42.6327C336.14 37.7764 330.517 36.7689 330.459 36.7369C314.997 31.8828 299.027 28.8418 282.866 27.6747C258.99 25.9475 241.078 28.7888 234.486 30.0895C231.475 30.6812 228.634 34.1249 225.884 40.6124C222.951 47.5605 221.248 54.967 220.851 62.5004H220.585H220.851L220.532 67.9217C220.453 70.2929 220.675 72.6644 221.192 74.9796C221.271 75.4061 221.351 75.8539 221.436 76.3337C222.176 80.5023 227.698 85.0974 233.444 84.5536C236.614 84.2551 240.136 84.1219 243.908 84.1219V84.1005Z" fill="white"/>
<path d="M306.927 56.3898C307.899 50.3828 306.255 45.1182 303.257 44.631C300.258 44.1438 297.039 48.6184 296.067 54.6254C295.095 60.6323 296.738 65.8969 299.737 66.3842C302.735 66.8714 305.955 62.3968 306.927 56.3898Z" fill="black"/>
<path d="M260.493 51.55C261.465 45.543 259.822 40.2784 256.823 39.7912C253.824 39.3039 250.605 43.7786 249.633 49.7855C248.661 55.7925 250.304 61.0571 253.303 61.5443C256.302 62.0316 259.521 57.5569 260.493 51.55Z" fill="black"/>
<path d="M340.315 25.5906C343.225 22.4988 371.421 10.4727 375.214 23.6449C378.146 33.8319 366.261 49.6269 360.723 56.2637C360.544 56.4795 360.306 56.6369 360.038 56.7156C359.769 56.7943 359.484 56.7907 359.218 56.7052C358.951 56.6198 358.717 56.4564 358.544 56.2361C358.371 56.0158 358.269 55.7488 358.249 55.4694C357.898 50.6717 358.063 38.9441 344.539 36.38C341.48 35.799 336.996 29.1249 340.315 25.5906Z" fill="black"/>
<path d="M359.666 57.3035C359.459 57.3026 359.252 57.2702 359.054 57.2076C358.686 57.0933 358.362 56.8693 358.124 56.5655C357.887 56.2617 357.747 55.8924 357.724 55.5071C357.698 55.2086 357.682 54.8781 357.661 54.5262C357.331 49.1955 356.719 39.2164 344.44 36.9028C342.382 36.5137 339.94 33.8536 339.003 30.975C338.264 28.6935 338.594 26.6518 339.929 25.2285C342.148 22.8563 359.251 15.1427 369.099 17.5256C372.599 18.3732 374.828 20.3829 375.727 23.4907C378.744 33.9762 366.524 50.1444 361.135 56.5999C360.957 56.8183 360.733 56.9946 360.479 57.1163C360.225 57.2379 359.948 57.3019 359.666 57.3035ZM364.922 18.144C355.463 18.144 342.504 24.0451 340.706 25.9588C339.344 27.4034 339.578 29.3065 340.014 30.6445C340.903 33.3685 343.164 35.5755 344.637 35.8527C357.73 38.3208 358.4 49.2221 358.719 54.4623C358.719 54.8088 358.762 55.1339 358.783 55.4271C358.795 55.6003 358.858 55.766 358.965 55.9028C359.072 56.0396 359.217 56.1412 359.382 56.1945C359.547 56.2479 359.724 56.2505 359.89 56.2021C360.056 56.1537 360.205 56.0564 360.315 55.9229C365.603 49.59 377.579 33.7843 374.706 23.7945C373.924 21.0759 371.95 19.3167 368.854 18.5651C367.564 18.2719 366.245 18.1306 364.922 18.144Z" fill="white"/>
<path d="M345.516 36.582C345.516 36.582 360.587 21.9865 375.659 27.7223L345.516 36.582Z" fill="black"/>
<path d="M345.88 36.9664L345.141 36.1828C345.295 36.0388 360.632 21.4219 375.848 27.2111L375.47 28.208C360.893 22.6747 346.029 36.8225 345.88 36.9664Z" fill="white"/>
<path d="M268.608 69.8409C268.608 69.8409 274.54 69.3078 277.732 71.1362C281.041 73.066 274.359 77.6717 274.359 77.6717C274.359 77.6717 270.774 81.1047 268.725 76.9467C266.816 73.0553 267.193 73.4978 267.193 73.4978C267.193 73.4978 265.922 70.4486 268.608 69.8409Z" fill="black"/>
<path d="M292.559 78.5992C292.443 78.5992 292.331 78.5618 292.239 78.4926C288.436 75.63 282.977 75.7686 282.919 75.7686C282.778 75.7686 282.642 75.7124 282.543 75.6125C282.443 75.5125 282.387 75.3769 282.387 75.2355C282.387 75.0941 282.443 74.9586 282.543 74.8586C282.642 74.7586 282.778 74.7024 282.919 74.7024C283.158 74.7024 288.771 74.5479 292.91 77.6397C292.966 77.6817 293.013 77.7343 293.048 77.7945C293.084 77.8548 293.107 77.9214 293.117 77.9907C293.127 78.0601 293.123 78.1306 293.106 78.1984C293.088 78.2662 293.058 78.33 293.016 78.386C292.963 78.4567 292.894 78.5132 292.814 78.5504C292.734 78.5876 292.646 78.6044 292.559 78.5992Z" fill="black"/>
<path d="M291.047 72.6718C290.994 72.6798 290.941 72.6798 290.888 72.6718C288.434 71.8731 285.795 71.8507 283.328 72.6078C283.196 72.6587 283.049 72.655 282.92 72.5975C282.791 72.5401 282.69 72.4335 282.639 72.3013C282.588 72.1691 282.592 72.0221 282.649 71.8927C282.707 71.7632 282.813 71.6619 282.945 71.611C285.634 70.7508 288.527 70.7657 291.207 71.6536C291.348 71.6748 291.475 71.7513 291.56 71.8663C291.645 71.9813 291.68 72.1253 291.659 72.2667C291.638 72.408 291.562 72.5352 291.447 72.6202C291.332 72.7052 291.188 72.741 291.047 72.7198V72.6718Z" fill="black"/>
<path d="M288.547 82.0646C288.432 82.0646 288.32 82.0272 288.228 81.958C286.426 80.5802 284.402 79.5218 282.243 78.8289C282.176 78.8103 282.112 78.7787 282.057 78.7357C282.002 78.6927 281.956 78.6393 281.921 78.5784C281.887 78.5175 281.864 78.4503 281.856 78.3808C281.847 78.3113 281.852 78.2407 281.871 78.1732C281.908 78.0379 281.997 77.9228 282.119 77.8529C282.24 77.7831 282.384 77.7641 282.52 77.8C284.826 78.518 286.987 79.6387 288.904 81.1104C288.96 81.1524 289.007 81.205 289.042 81.2653C289.078 81.3255 289.101 81.3922 289.111 81.4615C289.121 81.5308 289.117 81.6014 289.1 81.6692C289.082 81.737 289.052 81.8007 289.01 81.8567C288.956 81.9272 288.886 81.9832 288.805 82.0195C288.724 82.0558 288.636 82.0713 288.547 82.0646Z" fill="black"/>
<path d="M255.064 74.3822C254.977 74.3823 254.891 74.361 254.814 74.3201C254.737 74.2792 254.671 74.22 254.623 74.1477C254.583 74.0896 254.556 74.0243 254.542 73.9556C254.528 73.8869 254.528 73.8161 254.541 73.7473C254.554 73.6785 254.581 73.613 254.62 73.5545C254.658 73.4961 254.708 73.4458 254.766 73.4067C258.49 70.8639 263.071 71.7808 263.278 71.8075C263.419 71.8364 263.543 71.9204 263.622 72.0409C263.702 72.1613 263.73 72.3084 263.701 72.4498C263.672 72.5912 263.588 72.7153 263.468 72.7947C263.348 72.8742 263.201 72.9026 263.06 72.8736C263.018 72.8736 258.746 72.0154 255.378 74.3022C255.284 74.3609 255.175 74.3889 255.064 74.3822Z" fill="black"/>
<path d="M263.385 69.7181C263.279 69.7183 263.175 69.6867 263.087 69.6274C261.301 68.5854 259.189 68.2543 257.171 68.6999C257.03 68.7296 256.883 68.7019 256.762 68.6229C256.641 68.5439 256.557 68.4201 256.527 68.2788C256.498 68.1374 256.525 67.99 256.604 67.869C256.683 67.7481 256.806 67.6634 256.948 67.6337C259.247 67.1016 261.664 67.4837 263.688 68.6999C263.781 68.7647 263.85 68.8575 263.887 68.9648C263.923 69.072 263.925 69.1882 263.891 69.2963C263.857 69.4045 263.79 69.499 263.699 69.5662C263.608 69.6334 263.498 69.6698 263.385 69.6701V69.7181Z" fill="black"/>
<path d="M257.81 78.3486C257.723 78.3488 257.637 78.3274 257.56 78.2865C257.483 78.2456 257.417 78.1864 257.368 78.1141C257.289 77.9974 257.259 77.8538 257.284 77.7149C257.31 77.5759 257.39 77.453 257.507 77.3731C259.185 76.1881 261.085 75.3558 263.093 74.9263C263.234 74.9044 263.378 74.9395 263.493 75.024C263.608 75.1085 263.685 75.2354 263.707 75.3767C263.729 75.5181 263.694 75.6624 263.61 75.7779C263.525 75.8933 263.399 75.9705 263.258 75.9924C261.411 76.4091 259.663 77.1842 258.113 78.274C258.021 78.3267 257.916 78.3526 257.81 78.3486Z" fill="black"/>
<path d="M329.409 139.167C331.002 138.576 332.729 138.447 334.391 138.797C336.054 139.147 337.583 139.961 338.804 141.145C343.32 145.516 350.705 155.341 356.03 175.795C356.03 175.795 358.913 186.941 352.082 190.993C345.252 195.044 339.974 189.473 334.777 176.301C332.234 169.787 328.73 163.691 324.381 158.219C322.485 155.907 321.521 152.967 321.679 149.978C321.902 146.108 323.498 141.38 329.409 139.167Z" fill="black"/>
<path d="M347.862 192.8C347.106 192.798 346.354 192.672 345.639 192.427C341.643 191.057 338.036 185.987 334.28 176.472C331.754 170.01 328.279 163.962 323.97 158.529C321.984 156.116 320.976 153.043 321.145 149.92C321.369 146.081 322.96 141.017 329.221 138.666C330.908 138.046 332.735 137.913 334.493 138.283C336.251 138.654 337.87 139.513 339.164 140.761C344.218 145.655 351.331 155.687 356.534 175.635C356.656 176.104 359.433 187.219 352.342 191.43C350.999 192.283 349.451 192.756 347.862 192.8ZM329.588 139.663C323.859 141.795 322.412 146.46 322.199 149.983C322.052 152.842 322.98 155.651 324.8 157.857C329.178 163.374 332.708 169.515 335.275 176.077C338.856 185.14 342.361 190.172 345.984 191.414C347.825 192.048 349.708 191.75 351.836 190.508C358.22 186.712 355.56 176.008 355.56 175.902C350.155 155.149 342.537 145.458 338.483 141.529C337.333 140.418 335.893 139.653 334.33 139.323C332.766 138.993 331.141 139.111 329.641 139.663H329.588Z" fill="white"/>
<path d="M313.046 230.466C320.776 230.466 327.043 222.285 327.043 212.193C327.043 202.1 320.776 193.919 313.046 193.919C305.315 193.919 299.049 202.1 299.049 212.193C299.049 222.285 305.315 230.466 313.046 230.466Z" fill="white"/>
<path d="M313.046 230.754C305.183 230.754 298.783 222.438 298.783 212.214C298.783 201.99 305.167 193.674 313.046 193.674C320.925 193.674 327.314 201.99 327.314 212.214C327.314 222.438 320.914 230.754 313.046 230.754ZM313.046 194.207C305.476 194.207 299.315 202.283 299.315 212.214C299.315 222.145 305.476 230.221 313.046 230.221C320.616 230.221 326.782 222.145 326.782 212.214C326.782 202.283 320.622 194.186 313.046 194.186V194.207Z" fill="white"/>
<path d="M320.866 230.466C328.596 230.466 334.863 222.285 334.863 212.193C334.863 202.1 328.596 193.919 320.866 193.919C313.136 193.919 306.869 202.1 306.869 212.193C306.869 222.285 313.136 230.466 320.866 230.466Z" fill="black"/>
<path d="M320.867 230.999C312.855 230.999 306.338 222.561 306.338 212.193C306.338 201.824 312.855 193.386 320.867 193.386C328.879 193.386 335.396 201.819 335.396 212.193C335.396 222.566 328.879 230.999 320.867 230.999ZM320.867 194.452C313.419 194.452 307.402 202.411 307.402 212.193C307.402 221.974 313.44 229.933 320.867 229.933C328.293 229.933 334.332 221.974 334.332 212.193C334.332 202.411 328.288 194.452 320.867 194.452Z" fill="white"/>
<path d="M326.543 212.194C326.543 217.14 325.006 221.599 322.546 224.811C320.086 228.023 316.723 229.967 313.046 229.967C309.369 229.967 306.005 228.023 303.545 224.811C301.085 221.599 299.549 217.14 299.549 212.194C299.549 207.248 301.085 202.788 303.545 199.576C306.005 196.364 309.369 194.42 313.046 194.42C316.723 194.42 320.086 196.364 322.546 199.576C325.006 202.788 326.543 207.248 326.543 212.194Z" fill="white" stroke="black"/>
<path d="M320.868 230.467C328.598 230.467 334.865 222.286 334.865 212.194C334.865 202.101 328.598 193.92 320.868 193.92C313.138 193.92 306.871 202.101 306.871 212.194C306.871 222.286 313.138 230.467 320.868 230.467Z" fill="black"/>
<path d="M192.48 166.194C183.112 166.194 175.518 161.855 175.518 156.501C175.518 155.123 175.518 154.401 175.518 152.947C175.518 152.301 185.524 146.809 192.48 146.809C199.26 146.809 206.565 149.339 209.28 152.624C209.603 153.015 209.442 154.563 209.442 156.501C209.442 161.855 201.848 166.194 192.48 166.194Z" fill="url(#paint0_radial_141_1306)"/>
<path fill-rule="evenodd" clip-rule="evenodd" d="M180.765 162.867C183.735 164.564 187.876 165.632 192.48 165.632C197.084 165.632 201.225 164.564 204.195 162.867C207.181 161.161 208.88 158.889 208.88 156.501C208.88 156.009 208.89 155.543 208.9 155.119C208.901 155.082 208.902 155.046 208.903 155.01C208.912 154.627 208.92 154.285 208.92 153.983C208.92 153.649 208.91 153.388 208.885 153.196C208.862 153.027 208.835 152.972 208.837 152.97C207.572 151.448 205.185 150.042 202.221 149.016C199.264 147.992 195.805 147.371 192.48 147.371C189.12 147.371 184.966 148.706 181.613 150.152C179.945 150.871 178.497 151.609 177.471 152.202C176.957 152.5 176.559 152.756 176.295 152.95C176.199 153.021 176.129 153.078 176.08 153.122L176.08 156.501C176.08 158.889 177.779 161.161 180.765 162.867ZM175.518 156.501C175.518 161.855 183.112 166.194 192.48 166.194C201.848 166.194 209.442 161.855 209.442 156.501C209.442 155.974 209.454 155.476 209.465 155.022C209.494 153.807 209.516 152.909 209.28 152.624C206.565 149.339 199.26 146.809 192.48 146.809C185.524 146.809 175.518 152.301 175.518 152.947L175.518 156.501Z" fill="#1F2024"/>
<path d="M192.479 162.965C183.111 162.965 175.517 158.625 175.517 153.272C175.517 147.919 183.111 143.579 192.479 143.579C201.847 143.579 209.441 147.919 209.441 153.272C209.441 158.625 201.847 162.965 192.479 162.965Z" fill="#FFE463"/>
<path fill-rule="evenodd" clip-rule="evenodd" d="M180.764 159.638C183.734 161.335 187.875 162.402 192.479 162.402C197.083 162.402 201.224 161.335 204.194 159.638C207.18 157.931 208.879 155.66 208.879 153.272C208.879 150.884 207.18 148.612 204.194 146.906C201.224 145.209 197.083 144.141 192.479 144.141C187.875 144.141 183.734 145.209 180.764 146.906C177.778 148.612 176.079 150.884 176.079 153.272C176.079 155.66 177.778 157.931 180.764 159.638ZM175.517 153.272C175.517 158.625 183.111 162.965 192.479 162.965C201.847 162.965 209.441 158.625 209.441 153.272C209.441 147.919 201.847 143.579 192.479 143.579C183.111 143.579 175.517 147.919 175.517 153.272Z" fill="#1F2024"/>
<path fill-rule="evenodd" clip-rule="evenodd" d="M205.887 161.996L205.887 158.765L206.449 158.765L206.449 161.996L205.887 161.996Z" fill="#1F2024"/>
<path fill-rule="evenodd" clip-rule="evenodd" d="M207.514 160.093L207.514 156.862L208.076 156.862L208.076 160.093L207.514 160.093Z" fill="#1F2024"/>
<path fill-rule="evenodd" clip-rule="evenodd" d="M203.3 163.612L203.3 160.381L203.862 160.381L203.862 163.612L203.3 163.612Z" fill="#1F2024"/>
<path fill-rule="evenodd" clip-rule="evenodd" d="M200.396 164.904L200.396 161.673L200.958 161.673L200.958 164.904L200.396 164.904Z" fill="#1F2024"/>
<path fill-rule="evenodd" clip-rule="evenodd" d="M196.194 165.873L196.194 162.642L196.756 162.642L196.756 165.873L196.194 165.873Z" fill="#1F2024"/>
<path fill-rule="evenodd" clip-rule="evenodd" d="M191.992 166.196L191.992 162.965L192.555 162.965L192.555 166.196L191.992 166.196Z" fill="#1F2024"/>
<path fill-rule="evenodd" clip-rule="evenodd" d="M187.473 165.55L187.473 162.319L188.035 162.319L188.035 165.55L187.473 165.55Z" fill="#1F2024"/>
<path fill-rule="evenodd" clip-rule="evenodd" d="M183.594 164.581L183.594 161.35L184.156 161.35L184.156 164.581L183.594 164.581Z" fill="#1F2024"/>
<path fill-rule="evenodd" clip-rule="evenodd" d="M181.011 163.611L181.011 160.38L181.573 160.38L181.573 163.611L181.011 163.611Z" fill="#1F2024"/>
<path fill-rule="evenodd" clip-rule="evenodd" d="M178.426 161.672L178.426 158.765L178.988 158.765L178.988 161.672L178.426 161.672Z" fill="#1F2024"/>
<path fill-rule="evenodd" clip-rule="evenodd" d="M176.81 160.056L176.81 157.148L177.372 157.148L177.372 160.056L176.81 160.056Z" fill="#1F2024"/>
<path d="M194.996 158.646C185.628 158.646 178.034 154.307 178.034 148.954C178.034 147.575 178.034 146.853 178.034 145.399C178.034 144.753 188.041 139.261 194.996 139.261C201.777 139.261 209.082 141.791 211.797 145.076C212.12 145.467 211.959 147.015 211.959 148.954C211.959 154.307 204.365 158.646 194.996 158.646Z" fill="url(#paint1_radial_141_1306)"/>
<path fill-rule="evenodd" clip-rule="evenodd" d="M183.281 155.319C186.251 157.016 190.392 158.084 194.996 158.084C199.601 158.084 203.742 157.016 206.712 155.319C209.698 153.613 211.397 151.341 211.397 148.954C211.397 148.462 211.407 147.996 211.417 147.572C211.418 147.535 211.419 147.498 211.42 147.462C211.429 147.079 211.437 146.737 211.437 146.435C211.437 146.101 211.427 145.841 211.401 145.648C211.379 145.48 211.352 145.424 211.353 145.422C210.089 143.9 207.702 142.494 204.737 141.468C201.781 140.444 198.322 139.823 194.996 139.823C191.636 139.823 187.482 141.158 184.13 142.604C182.462 143.323 181.014 144.061 179.988 144.654C179.473 144.952 179.075 145.208 178.812 145.402C178.716 145.473 178.645 145.53 178.596 145.574L178.596 148.954C178.596 151.341 180.295 153.613 183.281 155.319ZM178.034 148.954C178.034 154.307 185.628 158.646 194.996 158.646C204.365 158.646 211.959 154.307 211.959 148.954C211.959 148.426 211.971 147.928 211.982 147.474C212.011 146.259 212.032 145.361 211.797 145.076C209.082 141.791 201.777 139.261 194.996 139.261C188.041 139.261 178.034 144.753 178.034 145.399L178.034 148.954Z" fill="#1F2024"/>
<path d="M194.996 155.417C185.628 155.417 178.033 151.077 178.033 145.724C178.033 140.371 185.628 136.031 194.996 136.031C204.364 136.031 211.958 140.371 211.958 145.724C211.958 151.077 204.364 155.417 194.996 155.417Z" fill="#FFE463"/>
<path fill-rule="evenodd" clip-rule="evenodd" d="M183.28 152.09C186.251 153.787 190.391 154.855 194.996 154.855C199.6 154.855 203.741 153.787 206.711 152.09C209.697 150.383 211.396 148.112 211.396 145.724C211.396 143.336 209.697 141.065 206.711 139.358C203.741 137.661 199.6 136.593 194.996 136.593C190.391 136.593 186.251 137.661 183.28 139.358C180.294 141.065 178.596 143.336 178.596 145.724C178.596 148.112 180.294 150.383 183.28 152.09ZM178.033 145.724C178.033 151.077 185.628 155.417 194.996 155.417C204.364 155.417 211.958 151.077 211.958 145.724C211.958 140.371 204.364 136.031 194.996 136.031C185.628 136.031 178.033 140.371 178.033 145.724Z" fill="#1F2024"/>
<path fill-rule="evenodd" clip-rule="evenodd" d="M208.404 154.449L208.404 151.218L208.966 151.218L208.966 154.449L208.404 154.449Z" fill="#1F2024"/>
<path fill-rule="evenodd" clip-rule="evenodd" d="M210.031 152.546L210.031 149.315L210.593 149.315L210.593 152.546L210.031 152.546Z" fill="#1F2024"/>
<path fill-rule="evenodd" clip-rule="evenodd" d="M205.817 156.065L205.817 152.834L206.379 152.834L206.379 156.065L205.817 156.065Z" fill="#1F2024"/>
<path fill-rule="evenodd" clip-rule="evenodd" d="M202.912 157.357L202.912 154.126L203.475 154.126L203.475 157.357L202.912 157.357Z" fill="#1F2024"/>
<path fill-rule="evenodd" clip-rule="evenodd" d="M198.71 158.326L198.71 155.095L199.272 155.095L199.272 158.326L198.71 158.326Z" fill="#1F2024"/>
<path fill-rule="evenodd" clip-rule="evenodd" d="M194.509 158.649L194.509 155.418L195.071 155.418L195.071 158.649L194.509 158.649Z" fill="#1F2024"/>
<path fill-rule="evenodd" clip-rule="evenodd" d="M189.99 158.003L189.99 154.772L190.552 154.772L190.552 158.003L189.99 158.003Z" fill="#1F2024"/>
<path fill-rule="evenodd" clip-rule="evenodd" d="M186.111 157.034L186.111 153.803L186.673 153.803L186.673 157.034L186.111 157.034Z" fill="#1F2024"/>
<path fill-rule="evenodd" clip-rule="evenodd" d="M183.528 156.064L183.528 152.833L184.09 152.833L184.09 156.064L183.528 156.064Z" fill="#1F2024"/>
<path fill-rule="evenodd" clip-rule="evenodd" d="M180.943 154.126L180.943 151.218L181.505 151.218L181.505 154.126L180.943 154.126Z" fill="#1F2024"/>
<path fill-rule="evenodd" clip-rule="evenodd" d="M179.326 152.509L179.326 149.602L179.889 149.602L179.889 152.509L179.326 152.509Z" fill="#1F2024"/>
<path d="M189.963 153.615C180.595 153.615 173.001 149.275 173.001 143.922C173.001 142.544 173.001 141.822 173.001 140.368C173.001 139.722 183.008 134.229 189.963 134.229C196.744 134.229 204.049 136.759 206.764 140.045C207.087 140.436 206.926 141.984 206.926 143.922C206.926 149.275 199.331 153.615 189.963 153.615Z" fill="url(#paint2_radial_141_1306)"/>
<path fill-rule="evenodd" clip-rule="evenodd" d="M178.248 150.288C181.218 151.985 185.359 153.053 189.963 153.053C194.568 153.053 198.708 151.985 201.679 150.288C204.665 148.582 206.363 146.31 206.363 143.922C206.363 143.43 206.374 142.964 206.384 142.54C206.385 142.503 206.385 142.467 206.386 142.431C206.395 142.048 206.404 141.706 206.404 141.403C206.404 141.07 206.393 140.809 206.368 140.617C206.346 140.448 206.319 140.392 206.32 140.391C205.056 138.869 202.669 137.463 199.704 136.436C196.748 135.413 193.288 134.792 189.963 134.792C186.603 134.792 182.449 136.127 179.096 137.573C177.429 138.292 175.98 139.029 174.955 139.623C174.44 139.921 174.042 140.177 173.778 140.371C173.683 140.442 173.612 140.499 173.563 140.543L173.563 143.922C173.563 146.31 175.262 148.582 178.248 150.288ZM173.001 143.922C173.001 149.275 180.595 153.615 189.963 153.615C199.331 153.615 206.926 149.275 206.926 143.922C206.926 143.395 206.938 142.897 206.948 142.443C206.977 141.227 206.999 140.33 206.764 140.045C204.049 136.759 196.744 134.229 189.963 134.229C183.008 134.229 173.001 139.722 173.001 140.368L173.001 143.922Z" fill="#1F2024"/>
<path d="M189.962 150.386C180.594 150.386 173 146.046 173 140.693C173 135.34 180.594 131 189.962 131C199.331 131 206.925 135.34 206.925 140.693C206.925 146.046 199.331 150.386 189.962 150.386Z" fill="#FFE463"/>
<path fill-rule="evenodd" clip-rule="evenodd" d="M178.247 147.058C181.217 148.756 185.358 149.823 189.962 149.823C194.567 149.823 198.708 148.756 201.678 147.058C204.664 145.352 206.363 143.081 206.363 140.693C206.363 138.305 204.664 136.033 201.678 134.327C198.708 132.63 194.567 131.562 189.962 131.562C185.358 131.562 181.217 132.63 178.247 134.327C175.261 136.033 173.562 138.305 173.562 140.693C173.562 143.081 175.261 145.352 178.247 147.058ZM173 140.693C173 146.046 180.594 150.386 189.962 150.386C199.331 150.386 206.925 146.046 206.925 140.693C206.925 135.34 199.331 131 189.962 131C180.594 131 173 135.34 173 140.693Z" fill="#1F2024"/>
<path fill-rule="evenodd" clip-rule="evenodd" d="M203.372 149.416L203.372 146.186L203.935 146.186L203.935 149.416L203.372 149.416Z" fill="#1F2024"/>
<path fill-rule="evenodd" clip-rule="evenodd" d="M204.999 147.514L204.999 144.283L205.562 144.283L205.562 147.514L204.999 147.514Z" fill="#1F2024"/>
<path fill-rule="evenodd" clip-rule="evenodd" d="M200.785 151.033L200.785 147.802L201.348 147.802L201.348 151.033L200.785 151.033Z" fill="#1F2024"/>
<path fill-rule="evenodd" clip-rule="evenodd" d="M197.881 152.325L197.881 149.094L198.443 149.094L198.443 152.325L197.881 152.325Z" fill="#1F2024"/>
<path fill-rule="evenodd" clip-rule="evenodd" d="M193.679 153.293L193.679 150.062L194.241 150.062L194.241 153.293L193.679 153.293Z" fill="#1F2024"/>
<path fill-rule="evenodd" clip-rule="evenodd" d="M189.478 153.617L189.478 150.386L190.04 150.386L190.04 153.617L189.478 153.617Z" fill="#1F2024"/>
<path fill-rule="evenodd" clip-rule="evenodd" d="M184.958 152.971L184.958 149.74L185.521 149.74L185.521 152.971L184.958 152.971Z" fill="#1F2024"/>
<path fill-rule="evenodd" clip-rule="evenodd" d="M181.079 152.001L181.079 148.771L181.642 148.771L181.642 152.001L181.079 152.001Z" fill="#1F2024"/>
<path fill-rule="evenodd" clip-rule="evenodd" d="M178.496 151.032L178.496 147.801L179.059 147.801L179.059 151.032L178.496 151.032Z" fill="#1F2024"/>
<path fill-rule="evenodd" clip-rule="evenodd" d="M175.911 149.093L175.911 146.186L176.474 146.186L176.474 149.093L175.911 149.093Z" fill="#1F2024"/>
<path fill-rule="evenodd" clip-rule="evenodd" d="M174.295 147.477L174.295 144.569L174.857 144.569L174.857 147.477L174.295 147.477Z" fill="#1F2024"/>
<defs>
<radialGradient id="paint0_radial_141_1306" cx="0" cy="0" r="1" gradientUnits="userSpaceOnUse" gradientTransform="translate(208.862 156.197) rotate(179.476) scale(33.346 19.0323)">
<stop stop-color="#E9B404"/>
<stop offset="0.474999" stop-color="#FFE56D"/>
<stop offset="0.973958" stop-color="#E9B404"/>
</radialGradient>
<radialGradient id="paint1_radial_141_1306" cx="0" cy="0" r="1" gradientUnits="userSpaceOnUse" gradientTransform="translate(211.379 148.649) rotate(179.476) scale(33.346 19.0323)">
<stop stop-color="#E9B404"/>
<stop offset="0.474999" stop-color="#FFE56D"/>
<stop offset="0.973958" stop-color="#E9B404"/>
</radialGradient>
<radialGradient id="paint2_radial_141_1306" cx="0" cy="0" r="1" gradientUnits="userSpaceOnUse" gradientTransform="translate(206.346 143.617) rotate(179.476) scale(33.346 19.0323)">
<stop stop-color="#E9B404"/>
<stop offset="0.474999" stop-color="#FFE56D"/>
<stop offset="0.973958" stop-color="#E9B404"/>
</radialGradient>
</defs>
</svg>
