<svg width="40" height="40" viewBox="0 0 40 40" fill="none" xmlns="http://www.w3.org/2000/svg">
<rect width="40" height="40" rx="20" fill="#F3F3F3"/>
<path fill-rule="evenodd" clip-rule="evenodd" d="M14.3313 6.3325C15.7975 6.265 16.265 6.25 20 6.25C23.735 6.25 24.2025 6.26625 25.6675 6.3325C27.1325 6.39875 28.1325 6.6325 29.0075 6.97125C29.9237 7.3175 30.755 7.85875 31.4425 8.55875C32.1425 9.245 32.6825 10.075 33.0275 10.9925C33.3675 11.8675 33.6 12.8675 33.6675 14.33C33.735 15.7987 33.75 16.2662 33.75 20C33.75 23.735 33.7337 24.2025 33.6675 25.6688C33.6012 27.1313 33.3675 28.1313 33.0275 29.0063C32.6825 29.9239 32.1416 30.7552 31.4425 31.4425C30.755 32.1425 29.9237 32.6825 29.0075 33.0275C28.1325 33.3675 27.1325 33.6 25.67 33.6675C24.2025 33.735 23.735 33.75 20 33.75C16.265 33.75 15.7975 33.7337 14.3313 33.6675C12.8688 33.6012 11.8688 33.3675 10.9938 33.0275C10.0762 32.6825 9.24478 32.1416 8.5575 31.4425C7.85797 30.7558 7.31664 29.9249 6.97125 29.0075C6.6325 28.1325 6.4 27.1325 6.3325 25.67C6.265 24.2013 6.25 23.7337 6.25 20C6.25 16.265 6.26625 15.7975 6.3325 14.3325C6.39875 12.8675 6.6325 11.8675 6.97125 10.9925C7.31715 10.0751 7.8589 9.24414 8.55875 8.5575C9.24505 7.85813 10.0756 7.3168 10.9925 6.97125C11.8675 6.6325 12.8675 6.4 14.33 6.3325H14.3313ZM25.5562 8.8075C24.1062 8.74125 23.6712 8.7275 20 8.7275C16.3287 8.7275 15.8938 8.74125 14.4437 8.8075C13.1025 8.86875 12.375 9.0925 11.89 9.28125C11.2488 9.53125 10.79 9.8275 10.3088 10.3088C9.85256 10.7526 9.50148 11.2929 9.28125 11.89C9.0925 12.375 8.86875 13.1025 8.8075 14.4437C8.74125 15.8938 8.7275 16.3287 8.7275 20C8.7275 23.6712 8.74125 24.1062 8.8075 25.5562C8.86875 26.8975 9.0925 27.625 9.28125 28.11C9.50125 28.7063 9.8525 29.2475 10.3088 29.6912C10.7525 30.1475 11.2938 30.4988 11.89 30.7188C12.375 30.9075 13.1025 31.1313 14.4437 31.1925C15.8938 31.2588 16.3275 31.2725 20 31.2725C23.6725 31.2725 24.1062 31.2588 25.5562 31.1925C26.8975 31.1313 27.625 30.9075 28.11 30.7188C28.7513 30.4688 29.21 30.1725 29.6912 29.6912C30.1475 29.2475 30.4988 28.7063 30.7188 28.11C30.9075 27.625 31.1313 26.8975 31.1925 25.5562C31.2588 24.1062 31.2725 23.6712 31.2725 20C31.2725 16.3287 31.2588 15.8938 31.1925 14.4437C31.1313 13.1025 30.9075 12.375 30.7188 11.89C30.4688 11.2488 30.1725 10.79 29.6912 10.3088C29.2474 9.85259 28.7071 9.50151 28.11 9.28125C27.625 9.0925 26.8975 8.86875 25.5562 8.8075ZM18.2438 24.2388C19.2246 24.647 20.3167 24.7021 21.3337 24.3947C22.3506 24.0872 23.2292 23.4361 23.8195 22.5528C24.4098 21.6695 24.6751 20.6086 24.5701 19.5514C24.465 18.4942 23.9963 17.5062 23.2437 16.7562C22.764 16.2768 22.184 15.9098 21.5454 15.6814C20.9068 15.4531 20.2255 15.3692 19.5506 15.4358C18.8757 15.5023 18.2239 15.7177 17.6423 16.0664C17.0606 16.4151 16.5634 16.8884 16.1866 17.4523C15.8098 18.0162 15.5627 18.6566 15.4631 19.3275C15.3636 19.9983 15.4139 20.6829 15.6107 21.3319C15.8074 21.9809 16.1456 22.5783 16.6009 23.0809C17.0562 23.5835 17.6173 23.979 18.2438 24.2388ZM15.0025 15.0025C15.6588 14.3462 16.4379 13.8256 17.2954 13.4705C18.1528 13.1153 19.0719 12.9325 20 12.9325C20.9281 12.9325 21.8472 13.1153 22.7046 13.4705C23.5621 13.8256 24.3412 14.3462 24.9975 15.0025C25.6538 15.6588 26.1744 16.4379 26.5295 17.2954C26.8847 18.1528 27.0675 19.0719 27.0675 20C27.0675 20.9281 26.8847 21.8472 26.5295 22.7046C26.1744 23.5621 25.6538 24.3412 24.9975 24.9975C23.6721 26.3229 21.8744 27.0675 20 27.0675C18.1256 27.0675 16.3279 26.3229 15.0025 24.9975C13.6771 23.6721 12.9325 21.8744 12.9325 20C12.9325 18.1256 13.6771 16.3279 15.0025 15.0025ZM28.635 13.985C28.7976 13.8316 28.9278 13.6471 29.0179 13.4425C29.1079 13.2378 29.156 13.0172 29.1593 12.7937C29.1625 12.5701 29.1209 12.3482 29.0369 12.141C28.9528 11.9338 28.828 11.7456 28.67 11.5875C28.5119 11.4295 28.3237 11.3047 28.1165 11.2206C27.9093 11.1366 27.6874 11.095 27.4638 11.0982C27.2403 11.1015 27.0197 11.1496 26.815 11.2396C26.6104 11.3297 26.4259 11.4599 26.2725 11.6225C25.9741 11.9388 25.8108 12.3589 25.8171 12.7937C25.8235 13.2284 25.999 13.6436 26.3064 13.9511C26.6139 14.2585 27.0291 14.434 27.4638 14.4404C27.8986 14.4467 28.3187 14.2834 28.635 13.985Z" fill="url(#paint0_linear_1714_4584)"/>
<defs>
<linearGradient id="paint0_linear_1714_4584" x1="32.0005" y1="7.62549" x2="6.50049" y2="33.5005" gradientUnits="userSpaceOnUse">
<stop stop-color="#BA01AF"/>
<stop offset="0.45308" stop-color="#E30606"/>
<stop offset="1" stop-color="#FFD91F"/>
</linearGradient>
</defs>
</svg>
