<svg width="40" height="40" viewBox="0 0 40 40" fill="none" xmlns="http://www.w3.org/2000/svg">
<rect width="40" height="40" rx="20" fill="#F3F3F3"/>
<path d="M32.4041 13.0749C32.2493 12.4806 31.9472 11.9388 31.5279 11.5034C31.1087 11.068 30.5869 10.7543 30.0146 10.5934C27.9193 10 19.4865 10 19.4865 10C19.4865 10 11.0533 10.018 8.95805 10.6114C8.38571 10.7722 7.86394 11.086 7.4447 11.5214C7.02545 11.9568 6.72336 12.4987 6.56851 13.093C5.93473 16.9591 5.68888 22.85 6.58591 26.5614C6.74078 27.1558 7.04288 27.6976 7.46212 28.133C7.88136 28.5684 8.40313 28.8821 8.97545 29.043C11.0707 29.6364 19.5037 29.6364 19.5037 29.6364C19.5037 29.6364 27.9366 29.6364 30.0318 29.043C30.6041 28.8821 31.1259 28.5684 31.5452 28.133C31.9645 27.6976 32.2666 27.1558 32.4214 26.5614C33.0899 22.6899 33.2959 16.8027 32.4041 13.0751V13.0749Z" fill="#FF0000"/>
<path d="M16.6367 23.9084L24.0004 19.8175L16.6367 15.7266V23.9084Z" fill="white"/>
</svg>
