<svg width="101" height="117" viewBox="0 0 101 117" fill="none" xmlns="http://www.w3.org/2000/svg">
<path d="M54.6201 104.707L50.8929 111.523L42.9685 107.214C40.5509 105.725 38.5586 105.043 38.5586 101.293V65.2415C38.5612 64.0038 39.0076 62.8081 39.8168 61.8716C40.626 60.9351 41.7443 60.3198 42.9685 60.1377L54.1612 58.4588C54.8955 58.2881 55.6567 58.2676 56.3991 58.3983C57.1415 58.5291 57.8498 58.8086 58.4816 59.2199L67.7043 64.57L59.0524 94.2642V99.5583C59.0528 100.805 58.6056 102.011 57.7922 102.956C56.9787 103.9 55.8531 104.522 54.6201 104.707Z" fill="#1F2024"/>
<path d="M51.1159 112.252L42.7102 107.674L41.8595 107.17C39.7889 105.95 37.998 104.932 37.998 101.261V65.2426C38.0194 63.8837 38.5211 62.5762 39.4143 61.5518C40.3076 60.5274 41.5347 59.8524 42.8781 59.6463L54.0707 57.9674C54.8664 57.7867 55.6902 57.7669 56.4936 57.9092C57.2971 58.0514 58.064 58.3528 58.7493 58.7957L68.3526 64.392L59.6111 94.3436V99.5594C59.5921 100.881 59.1223 102.156 58.2796 103.173C57.4369 104.191 56.2718 104.891 54.9773 105.156L51.1159 112.252ZM55.5929 58.9188C55.1468 58.9225 54.7015 58.9599 54.261 59.0307L43.0683 60.7096C41.9876 60.8818 41.0029 61.4319 40.2897 62.262C39.5764 63.0921 39.1808 64.1483 39.1733 65.2426V101.294C39.1733 104.283 40.494 105.066 42.5311 106.241L43.3705 106.745L50.7689 110.763L54.3618 104.193H54.6416C55.7382 104.023 56.7382 103.467 57.4623 102.626C58.1864 101.785 58.5871 100.714 58.5926 99.6042V94.1534L67.155 64.9292L58.2008 59.747C57.4317 59.2337 56.5288 58.9574 55.6041 58.9524L55.5929 58.9188Z" fill="#1F2024"/>
<path d="M81.3479 100.308L77.6208 107.124L69.7075 102.815C67.2787 101.327 65.2305 100.644 65.2305 96.8943V44.7923C65.2327 43.5534 65.6787 42.3562 66.4878 41.4178C67.2968 40.4794 68.4152 39.8619 69.6404 39.6773L80.8331 38.0096C81.5683 37.8357 82.3311 37.8125 83.0756 37.9414C83.82 38.0703 84.5306 38.3486 85.1646 38.7595L94.3762 44.1096L85.7802 89.8653V95.1706C85.7803 96.4161 85.3327 97.6202 84.5191 98.5632C83.7054 99.5063 82.58 100.126 81.3479 100.308Z" fill="#1F2024"/>
<path d="M77.8442 107.887L69.3938 103.298L68.5431 102.795C66.4725 101.575 64.6816 100.556 64.6816 96.8848V44.7941C64.6894 43.4241 65.1848 42.1018 66.079 41.0639C66.9733 40.0261 68.2079 39.3407 69.5617 39.1306L80.7543 37.4517C81.5502 37.2735 82.3735 37.255 83.1766 37.3972C83.9796 37.5393 84.7465 37.8394 85.4329 38.2799L95.0026 43.8763L86.3283 89.9677V95.1723C86.3093 96.4936 85.8395 97.7687 84.9968 98.7864C84.1541 99.8042 82.989 100.504 81.6945 100.769L77.8442 107.887ZM82.3213 38.4926C81.8789 38.4964 81.4374 38.5338 81.0006 38.6045L69.8079 40.2834C68.7182 40.4512 67.724 41.002 67.0039 41.837C66.2838 42.6719 65.8851 43.7363 65.8793 44.8388V96.896C65.8793 99.8845 67.2 100.668 69.2371 101.843L70.0765 102.347L77.4749 106.365L81.0677 99.7949H81.3475C82.4423 99.6249 83.4408 99.0711 84.1647 98.2324C84.8885 97.3937 85.2904 96.3249 85.2986 95.2171V89.867L93.9281 44.4023L85.0411 39.2537C84.2449 38.7082 83.2975 38.4264 82.3325 38.4478L82.3213 38.4926Z" fill="#1F2024"/>
<path d="M92.1487 106.129L80.5083 107.864C79.9566 107.955 79.3916 107.925 78.8527 107.776C78.3139 107.626 77.814 107.361 77.3879 106.999C76.9618 106.637 76.6197 106.186 76.3855 105.678C76.1512 105.171 76.0303 104.618 76.0313 104.059V50.6136C76.0335 49.3746 76.4795 48.1774 77.2885 47.2391C78.0976 46.3007 79.216 45.6832 80.4412 45.4986L92.2159 43.7525C92.7573 43.6739 93.3094 43.7126 93.8345 43.866C94.3597 44.0194 94.8458 44.284 95.2598 44.6417C95.6738 44.9994 96.006 45.442 96.234 45.9393C96.4619 46.4367 96.5803 46.9773 96.581 47.5244V100.992C96.5811 102.237 96.1335 103.441 95.3198 104.385C94.5062 105.328 93.3808 105.947 92.1487 106.129Z" fill="white"/>
<path d="M79.9392 108.468C78.775 108.451 77.6634 107.981 76.8401 107.157C76.0168 106.334 75.5466 105.223 75.5293 104.058V50.6133C75.537 49.2433 76.0324 47.9209 76.9267 46.8831C77.8209 45.8453 79.0556 45.1599 80.4093 44.9498L92.128 43.2037C92.7498 43.1083 93.3848 43.1487 93.9894 43.3222C94.5941 43.4957 95.1539 43.7982 95.6304 44.2088C96.107 44.6194 96.4889 45.1283 96.7499 45.7007C97.0109 46.273 97.1448 46.8951 97.1424 47.5241V100.992C97.1293 102.363 96.6291 103.686 95.7312 104.724C94.8332 105.761 93.5959 106.445 92.24 106.655L80.5884 108.412C80.3737 108.448 80.1567 108.466 79.9392 108.468ZM92.7772 44.2782C92.617 44.2671 92.4562 44.2671 92.2959 44.2782L80.5884 46.0578C79.4987 46.2256 78.5045 46.7764 77.7844 47.6114C77.0643 48.4463 76.6656 49.5107 76.6598 50.6133V104.058C76.6611 104.53 76.764 104.997 76.9614 105.425C77.1588 105.854 77.4462 106.235 77.804 106.543C78.1618 106.851 78.5816 107.078 79.035 107.21C79.4884 107.341 79.9647 107.373 80.4317 107.304L92.0721 105.536C93.1668 105.366 94.1654 104.812 94.8892 103.973C95.613 103.135 96.015 102.066 96.0231 100.958V47.5241C96.0231 47.0978 95.9391 46.6757 95.776 46.2819C95.6129 45.8881 95.3738 45.5303 95.0724 45.2289C94.771 44.9275 94.4132 44.6884 94.0194 44.5253C93.6256 44.3621 93.2035 44.2782 92.7772 44.2782Z" fill="#1F2024"/>
<path d="M65.4209 110.528L53.7805 112.251C53.2329 112.334 52.6741 112.297 52.1421 112.143C51.6101 111.989 51.1175 111.723 50.6978 111.362C50.2782 111.001 49.9414 110.553 49.7104 110.05C49.4794 109.547 49.3597 109 49.3594 108.446V71.1071C49.3603 69.876 49.8005 68.6857 50.6006 67.7501C51.4008 66.8145 52.5085 66.1951 53.7245 66.0033L65.4433 64.2572C65.9841 64.1768 66.5359 64.2139 67.0611 64.3659C67.5863 64.5179 68.0726 64.7814 68.4868 65.1382C68.901 65.4951 69.2335 65.9371 69.4616 66.434C69.6896 66.9309 69.8079 67.4712 69.8084 68.0179V105.379C69.8105 106.619 69.3696 107.819 68.5652 108.763C67.7607 109.707 66.6457 110.333 65.4209 110.528Z" fill="white"/>
<path d="M53.2087 112.857C52.6302 112.858 52.057 112.745 51.522 112.525C50.987 112.305 50.5008 111.981 50.0911 111.572C49.6815 111.164 49.3565 110.678 49.1347 110.144C48.913 109.609 48.7988 109.036 48.7988 108.458V71.1079C48.8086 69.7327 49.3107 68.4064 50.2142 67.3695C51.1176 66.3325 52.3626 65.6536 53.7236 65.4556L65.4424 63.7096C66.0632 63.6143 66.6972 63.6545 67.3011 63.8273C67.9049 64.0002 68.4641 64.3017 68.9405 64.711C69.4168 65.1204 69.799 65.6279 70.0607 66.1989C70.3224 66.7698 70.4575 67.3907 70.4567 68.0187V105.38C70.4633 106.774 69.9665 108.123 69.0576 109.18C68.1487 110.237 66.8888 110.931 65.5095 111.133L53.8579 112.812C53.643 112.843 53.426 112.858 53.2087 112.857ZM66.0356 64.7729H65.5543L53.8467 66.5637C52.7579 66.729 51.7639 67.2776 51.0437 68.1107C50.3234 68.9438 49.9243 70.0067 49.9181 71.1079V108.458C49.9206 108.927 50.0215 109.391 50.2143 109.819C50.4071 110.247 50.6875 110.63 51.0374 110.943C51.3947 111.252 51.8149 111.481 52.269 111.612C52.7231 111.743 53.2003 111.775 53.6676 111.704L65.3416 110.014C66.4382 109.843 67.4383 109.288 68.1624 108.447C68.8864 107.606 69.2872 106.534 69.2926 105.425V68.0187C69.2868 67.1597 68.9429 66.3375 68.3355 65.73C67.728 65.1226 66.9058 64.7787 66.0468 64.7729H66.0356Z" fill="#1F2024"/>
<path d="M27.6585 108.055L23.9313 114.871L16.0181 110.562C13.6005 109.073 11.541 108.39 11.541 104.641V82.0316C11.5432 80.7926 11.9893 79.5954 12.7983 78.657C13.6073 77.7187 14.7258 77.1012 15.9509 76.9165L27.1436 75.2488C27.8789 75.075 28.6417 75.0518 29.3861 75.1807C30.1306 75.3095 30.8412 75.5878 31.4752 75.9987L40.698 81.3488L32.0012 97.5782V102.884C32.0126 104.122 31.5813 105.323 30.785 106.271C29.9887 107.219 28.8799 107.852 27.6585 108.055Z" fill="#1F2024"/>
<path d="M24.153 115.609L15.7473 111.032L14.8966 110.528C12.826 109.308 11.0352 108.289 11.0352 104.618V82.0314C11.0587 80.6731 11.5612 79.3667 12.454 78.3428C13.3469 77.3189 14.5727 76.6432 15.9152 76.435L27.1079 74.7561C27.9037 74.5774 28.7271 74.5585 29.5303 74.7007C30.3334 74.8429 31.1003 75.1433 31.7864 75.5844L41.4793 81.1807L32.6482 97.7011V102.872C32.6297 104.192 32.1616 105.466 31.3211 106.483C30.4806 107.501 29.3181 108.201 28.0257 108.469L24.153 115.609ZM28.6301 75.6963C28.1876 75.7006 27.7462 75.738 27.3093 75.8082L16.1166 77.4871C15.0227 77.6473 14.022 78.1934 13.2954 79.0268C12.5688 79.8601 12.1641 80.9258 12.1544 82.0314V104.641C12.1544 107.629 13.4752 108.413 15.5122 109.588L16.3517 110.091L23.75 114.11L27.3429 107.54H27.6227C28.7174 107.37 29.716 106.816 30.4398 105.977C31.1637 105.138 31.5656 104.07 31.5737 102.962V97.4661L40.0802 81.5949L31.3387 76.5246C30.5436 75.9854 29.6018 75.704 28.6413 75.7187L28.6301 75.6963Z" fill="#1F2024"/>
<path d="M38.4687 113.874L26.8619 115.609C26.3099 115.702 25.7442 115.673 25.2044 115.525C24.6647 115.376 24.164 115.111 23.7375 114.749C23.3109 114.386 22.9688 113.935 22.7352 113.426C22.5015 112.917 22.3819 112.363 22.3848 111.804V87.8849C22.387 86.6353 22.8417 85.4287 23.6648 84.4884C24.4878 83.548 25.6235 82.9376 26.8619 82.7699L38.5247 81.0238C39.0664 80.9433 39.6192 80.9806 40.1452 81.1333C40.6712 81.286 41.158 81.5504 41.5724 81.9085C41.9869 82.2666 42.3191 82.7099 42.5465 83.2082C42.7738 83.7065 42.8909 84.248 42.8898 84.7957V108.737C42.8902 109.981 42.4442 111.183 41.6329 112.126C40.8215 113.069 39.6987 113.689 38.4687 113.874Z" fill="white"/>
<path d="M26.2466 116.214C25.1854 116.193 24.1659 115.797 23.37 115.094C22.8873 114.679 22.501 114.164 22.2381 113.584C21.9752 113.004 21.842 112.373 21.8478 111.737V87.885C21.8533 86.5144 22.3479 85.1908 23.2425 84.1525C24.1372 83.1142 25.3731 82.4295 26.7278 82.2215L38.4466 80.4754C39.0675 80.3818 39.7013 80.4236 40.3045 80.5979C40.9078 80.7722 41.4662 81.075 41.9414 81.4854C42.4167 81.8958 42.7975 82.4041 43.0579 82.9755C43.3182 83.5469 43.4519 84.1679 43.4497 84.7958V108.737C43.4419 110.113 42.9442 111.441 42.0457 112.483C41.1473 113.525 39.907 114.213 38.5473 114.423L26.8622 116.158C26.6587 116.192 26.4529 116.21 26.2466 116.214ZM39.0846 81.5164H38.6033L26.8622 83.3296C25.7745 83.4997 24.7829 84.0516 24.0651 84.8863C23.3473 85.7211 22.9501 86.7841 22.9447 87.885V111.804C22.9461 112.276 23.0489 112.742 23.2464 113.171C23.4438 113.599 23.7312 113.981 24.089 114.289C24.4467 114.597 24.8666 114.824 25.32 114.955C25.7734 115.086 26.2497 115.119 26.7167 115.05L38.3794 113.371C39.4742 113.201 40.4727 112.647 41.1966 111.808C41.9204 110.97 42.3223 109.901 42.3305 108.793V84.7958C42.3334 84.3687 42.2515 83.9453 42.0894 83.5501C41.9274 83.155 41.6884 82.796 41.3864 82.494C41.0844 82.192 40.7254 81.953 40.3302 81.7909C39.9351 81.6289 39.5117 81.547 39.0846 81.5499V81.5164Z" fill="#1F2024"/>
<path d="M93.4366 26.3925L94.2089 25.5643C95.399 24.28 96.4844 22.9027 97.4548 21.4454C98.292 20.3345 98.9423 19.0945 99.3799 17.7742C99.6821 14.0694 99.2121 4.67871 99.2121 4.67871C87.7955 6.57027 72.3496 10.9578 72.3496 11.551C72.4503 15.1998 73.0212 20.9865 73.0212 20.9865L79.2779 23.4041C80.9792 24.0756 85.1317 19.8784 85.1317 19.8784C85.1317 20.9305 85.1988 22.296 85.2995 25.2844C85.3097 25.4565 85.3719 25.6213 85.4778 25.7573C85.5837 25.8932 85.7284 25.9937 85.8928 26.0455L90.1124 27.5789C91.5227 28.1498 92.642 27.2544 93.4366 26.3925Z" fill="white"/>
<path d="M79.1851 23.4621C79.4366 23.5564 79.7725 23.558 80.2001 23.4427C80.6254 23.3279 81.0984 23.1088 81.5898 22.8199C82.5722 22.2422 83.5558 21.429 84.2677 20.7833L85.1036 20.0251V21.1537V21.155V21.1564V21.1578V21.1592V21.1605V21.1619V21.1633V21.1647V21.1661V21.1675V21.1688V21.1702V21.1716V21.173V21.1744V21.1758V21.1771V21.1785V21.1799V21.1813V21.1827V21.1841V21.1855V21.1869V21.1882V21.1896V21.191V21.1924V21.1938V21.1952V21.1966V21.198V21.1994V21.2008V21.2022V21.2036V21.205V21.2064V21.2078V21.2092V21.2106V21.212V21.2134V21.2148V21.2162V21.2176V21.219V21.2204V21.2218V21.2232V21.2246V21.226V21.2274V21.2288V21.2302V21.2316V21.233V21.2344V21.2358V21.2372V21.2386V21.24V21.2414V21.2428V21.2443V21.2457V21.2471V21.2485V21.2499V21.2513V21.2527V21.2541V21.2556V21.257V21.2584V21.2598V21.2612V21.2626V21.2641V21.2655V21.2669V21.2683V21.2697V21.2712V21.2726V21.274V21.2754V21.2768V21.2783V21.2797V21.2811V21.2825V21.284V21.2854V21.2868V21.2882V21.2897V21.2911V21.2925V21.2939V21.2954V21.2968V21.2982V21.2997V21.3011V21.3025V21.304V21.3054V21.3068V21.3083V21.3097V21.3111V21.3126V21.314V21.3154V21.3169V21.3183V21.3197V21.3212V21.3226V21.3241V21.3255V21.3269V21.3284V21.3298V21.3313V21.3327V21.3341V21.3356V21.337V21.3385V21.3399V21.3414V21.3428V21.3442V21.3457V21.3471V21.3486V21.35V21.3515V21.3529V21.3544V21.3558V21.3573V21.3587V21.3602V21.3616V21.3631V21.3645V21.366V21.3675V21.3689V21.3704V21.3718V21.3733V21.3747V21.3762V21.3777V21.3791V21.3806V21.382V21.3835V21.385V21.3864V21.3879V21.3893V21.3908V21.3923V21.3937V21.3952V21.3967V21.3981V21.3996V21.401V21.4025V21.404V21.4055V21.4069V21.4084V21.4099V21.4113V21.4128V21.4143V21.4157V21.4172V21.4187V21.4202V21.4216V21.4231V21.4246V21.4261V21.4275V21.429V21.4305V21.432V21.4334V21.4349V21.4364V21.4379V21.4393V21.4408V21.4423V21.4438V21.4453V21.4468V21.4482V21.4497V21.4512V21.4527V21.4542V21.4557V21.4571V21.4586V21.4601V21.4616V21.4631V21.4646V21.4661V21.4676V21.469V21.4705V21.472V21.4735V21.475V21.4765V21.478V21.4795V21.481V21.4825V21.484V21.4855V21.487V21.4885V21.49V21.4915V21.4929V21.4944V21.4959V21.4974V21.4989V21.5004V21.5019V21.5034V21.5049V21.5065V21.508V21.5095V21.511V21.5125V21.514V21.5155V21.517V21.5185V21.52V21.5215V21.523V21.5245V21.526V21.5275V21.5291V21.5306V21.5321V21.5336V21.5351V21.5366V21.5381V21.5396V21.5412V21.5427V21.5442V21.5457V21.5472V21.5487V21.5502V21.5518V21.5533V21.5548V21.5563V21.5578V21.5594V21.5609V21.5624V21.5639V21.5654V21.567V21.5685V21.57V21.5715V21.5731V21.5746V21.5761V21.5776V21.5792V21.5807V21.5822V21.5838V21.5853V21.5868V21.5883V21.5899V21.5914V21.5929V21.5945V21.596V21.5975V21.5991V21.6006V21.6021V21.6037V21.6052V21.6068V21.6083V21.6098V21.6114V21.6129V21.6144V21.616V21.6175V21.6191V21.6206V21.6221V21.6237V21.6252V21.6268V21.6283V21.6299V21.6314V21.6329V21.6345V21.636V21.6376V21.6391V21.6407V21.6422V21.6438V21.6453V21.6469V21.6484V21.65V21.6515V21.6531V21.6546V21.6562V21.6577V21.6593V21.6608V21.6624V21.664V21.6655V21.6671V21.6686V21.6702V21.6717V21.6733V21.6749V21.6764V21.678V21.6795V21.6811V21.6827V21.6842V21.6858V21.6873V21.6889V21.6905V21.692V21.6936V21.6952V21.6967V21.6983V21.6999V21.7014V21.703V21.7046V21.7061V21.7077V21.7093V21.7108V21.7124V21.714V21.7156V21.7171V21.7187V21.7203V21.7219V21.7234V21.725V21.7266V21.7282V21.7297V21.7313V21.7329V21.7345V21.736V21.7376V21.7392V21.7408V21.7424V21.744V21.7455V21.7471V21.7487V21.7503V21.7519V21.7535V21.755V21.7566V21.7582V21.7598V21.7614V21.763V21.7646V21.7661V21.7677V21.7693V21.7709V21.7725V21.7741V21.7757V21.7773V21.7789V21.7805V21.7821V21.7837V21.7852V21.7868V21.7884V21.79V21.7916V21.7932V21.7948V21.7964V21.798V21.7996V21.8012V21.8028V21.8044V21.806V21.8076V21.8092V21.8108V21.8124V21.814V21.8156V21.8172V21.8189V21.8205V21.8221V21.8237V21.8253V21.8269V21.8285V21.8301V21.8317V21.8333V21.8349V21.8365V21.8382V21.8398V21.8414V21.843V21.8446V21.8462V21.8478V21.8495V21.8511V21.8527V21.8543V21.8559V21.8575V21.8592V21.8608V21.8624V21.864V21.8656V21.8673V21.8689V21.8705V21.8721V21.8737V21.8754V21.877V21.8786V21.8802V21.8819V21.8835V21.8851V21.8867V21.8884V21.89V21.8916V21.8933V21.8949V21.8965V21.8982V21.8998V21.9014V21.903V21.9047V21.9063V21.9079V21.9096V21.9112V21.9128V21.9145V21.9161V21.9178V21.9191C85.1104 22.1629 85.1227 22.438 85.1363 22.7453C85.1667 23.4272 85.2042 24.2675 85.2044 25.2762C85.2105 25.4565 85.272 25.6306 85.3807 25.7746C85.4906 25.9203 85.6431 26.028 85.8172 26.0828L85.8274 26.086L85.8374 26.0897L90.0347 27.6119L90.0448 27.6156L90.0548 27.6197C90.3428 27.7384 90.6506 27.8015 90.9619 27.8056C91.4366 27.759 91.8974 27.6187 92.3177 27.3928C92.745 27.1631 93.1216 26.8496 93.425 26.4709L93.4367 26.4563L93.4495 26.4426L94.2215 25.6146L79.1851 23.4621ZM79.1851 23.4621C79.1846 23.4619 79.1841 23.4617 79.1836 23.4616L72.9372 21.0566V21.0529C72.9372 21.0353 72.9362 21.0203 72.9362 21.0201L72.9354 21.0086L72.9337 20.9887L72.9287 20.932L72.9103 20.7322L72.9087 20.7145C72.893 20.5445 72.8709 20.3061 72.8444 20.0129C72.7894 19.4058 72.715 18.5641 72.6375 17.6112C72.4826 15.7053 72.3159 13.3642 72.2656 11.5661C72.2657 11.5564 72.2658 11.5486 72.2659 11.5424C72.2673 11.5409 72.2688 11.5393 72.2706 11.5376C72.3447 11.4627 72.5621 11.3098 73.154 11.0633C74.3149 10.58 76.6761 9.82935 81.4636 8.55269C87.7312 6.89923 94.1957 5.47038 99.2022 4.63407C99.2024 4.63403 99.2027 4.63398 99.2029 4.63394L99.2361 4.62851V4.66683C99.2361 4.72993 99.2484 5.02074 99.2676 5.47766C99.3082 6.44277 99.3801 8.14899 99.4336 10.0159C99.5135 12.8005 99.5542 15.9684 99.4057 17.7888L99.404 17.8091V17.8294C99.404 17.9365 99.3687 18.1861 99.0921 18.7635C98.8184 19.3349 98.3291 20.186 97.4722 21.4824L97.4721 21.4826C96.505 22.9475 95.4179 24.3296 94.2218 25.6143L79.1851 23.4621ZM85.3351 25.2433L85.3356 25.259L85.337 25.2746C85.351 25.4237 85.4071 25.5657 85.4986 25.6842L85.8943 25.3785L85.4987 25.6842C85.5902 25.8027 85.7135 25.8927 85.8542 25.9439L85.8544 25.944L90.1014 27.4863C90.6699 27.7091 91.2372 27.7083 91.8024 27.4889C92.3501 27.2763 92.8715 26.8683 93.393 26.3234L93.393 26.3235L93.3999 26.316L94.1587 25.4903C94.1591 25.4898 94.1595 25.4894 94.1599 25.489C95.3531 24.208 96.4401 22.832 97.4102 21.3748L97.4111 21.3733C98.2355 20.1254 98.7012 19.297 98.9644 18.7561C99.2205 18.2296 99.3021 17.941 99.3163 17.7852L99.3166 17.7816C99.5774 14.6632 99.3173 7.47816 99.1831 5.31855L99.1485 4.76306L98.5999 4.85671C93.2702 5.76652 87.2728 7.15527 82.3828 8.43351C79.9371 9.07277 77.7649 9.68532 76.0883 10.1977C74.4322 10.7039 73.2126 11.126 72.7107 11.3863L72.4308 11.5314L72.4411 11.8466C72.5424 14.9309 72.9468 19.3884 73.07 20.6537L73.1001 20.9632L73.3911 21.073L79.3194 23.3101C79.5329 23.3941 79.7585 23.3956 79.959 23.3671C80.1646 23.338 80.3796 23.2722 80.5943 23.1861C81.0232 23.014 81.5083 22.7372 82.0078 22.4032C83.0102 21.733 84.1367 20.7883 85.0995 19.8427L85.1079 19.8344L85.1159 19.8258L85.1631 19.7748L85.1669 19.8462C85.1669 20.3947 85.1675 20.9779 85.2354 21.9065C85.2766 22.4694 85.2874 23.0524 85.3007 23.767C85.3088 24.202 85.3178 24.6857 85.3351 25.2433Z" stroke="#1F2024"/>
<path d="M88.2655 9.89403C88.5117 9.75972 88.6796 9.89403 88.6013 10.1627L85.1203 15.3113C85.045 15.4642 85.0057 15.6323 85.0052 15.8028C85.0048 15.9732 85.0433 16.1415 85.1178 16.2948C85.1923 16.4482 85.3008 16.5824 85.4351 16.6874C85.5694 16.7924 85.7259 16.8653 85.8926 16.9006L90.0563 18.2326C92.1046 18.9041 92.8657 17.852 93.7275 16.7104C98.9881 9.68137 99.0216 5.22668 99.0216 5.22668C100.219 -0.157003 95.1378 0.52575 92.6418 1.72337C82.1543 6.74888 73.6142 10.2746 73.0546 10.588C70.9728 11.8527 73.659 12.5803 73.659 12.5803L79.0203 14.3263C80.3522 14.8524 82.49 13.554 83.3743 12.9496L88.2655 9.89403Z" fill="white"/>
<path d="M91.2306 18.9716C90.7732 18.9662 90.3196 18.8868 89.8875 18.7366L85.7238 17.4382C85.4584 17.3739 85.2119 17.2483 85.0039 17.0714C84.7959 16.8945 84.6323 16.6713 84.5262 16.4197C84.433 16.1942 84.3946 15.9499 84.4141 15.7067C84.4335 15.4635 84.5103 15.2284 84.6381 15.0206L87.2236 11.2039L83.6755 13.4424C82.5563 14.2259 80.3177 15.4795 78.8179 14.8639L73.479 13.1402C73.2328 13.0731 71.8449 12.6478 71.7218 11.6852C71.6434 11.1256 71.9904 10.5659 72.7739 10.1294C72.9418 10.0287 73.5685 9.74886 75.337 9.01014C78.7396 7.47674 85.0634 4.72334 92.4058 1.22003C93.7825 0.548467 96.8829 -0.335755 98.6402 1.07452C99.6811 1.90278 100.006 3.31306 99.5803 5.26059C99.5803 5.86499 99.211 10.2861 94.1743 17.0129C93.8882 17.5608 93.4684 18.0276 92.9538 18.37C92.4392 18.7124 91.8465 18.9193 91.2306 18.9716ZM88.4212 9.27876C88.5939 9.28255 88.7599 9.34581 88.8913 9.45785C89.0117 9.5618 89.0976 9.69993 89.1376 9.85387C89.1776 10.0078 89.1698 10.1703 89.1152 10.3197C89.1046 10.3762 89.0816 10.4297 89.048 10.4764L85.5559 15.625C85.5255 15.6818 85.5096 15.7453 85.5096 15.8097C85.5096 15.8741 85.5255 15.9376 85.5559 15.9944C85.6004 16.0881 85.666 16.1702 85.7476 16.2343C85.8291 16.2983 85.9244 16.3427 86.026 16.3637L90.2233 17.6621C91.8798 18.2105 92.4618 17.483 93.2453 16.3749C98.338 9.58097 98.4611 5.18224 98.4611 5.18224C98.4556 5.14513 98.4556 5.10742 98.4611 5.07031C98.8081 3.54811 98.6178 2.49599 97.935 1.94755C96.8493 1.07452 94.5212 1.44388 92.8983 2.22737C85.5559 5.74187 79.1985 8.50647 75.7847 9.9839C74.4975 10.5435 73.5462 10.9801 73.3447 11.1032C72.8746 11.383 72.8298 11.5621 72.8298 11.5621C73.1006 11.8203 73.4377 11.9985 73.8036 12.0769L79.1985 13.7558C80.1163 14.114 81.784 13.3193 83.0599 12.4463L87.9623 9.3795C88.1058 9.31176 88.2626 9.27732 88.4212 9.27876Z" fill="#1F2024"/>
<path d="M80.4875 30.4668C80.5657 31.1911 80.4873 31.9238 80.2575 32.6152C80.0276 33.3065 79.6519 33.9404 79.1556 34.4738C78.7079 34.9327 78.2154 35.4475 77.667 35.996C70.5148 43.1481 54.2631 58.2134 15.6707 75.965C14.3171 76.6164 12.894 77.112 11.4286 77.4425C10.3198 77.6561 9.17111 77.4739 8.18277 76.9276L3.05652 74.1966C1.65743 73.3348 0.941098 72.5513 0.817979 71.141C0.706052 68.4995 0.560547 66.2386 0.560547 64.0224C0.560547 62.836 2.03798 62.2988 2.79908 61.9518C3.56019 61.6048 4.83615 65.1417 6.89561 64.2575C8.36185 63.6419 10.634 62.0189 12.7942 61.0004C25.0501 55.4153 46.2267 46.2149 70.1455 25.777C70.9961 25.0495 71.6789 23.2139 72.5295 22.4192C73.4705 21.3868 74.4721 20.4113 75.5292 19.4979C75.809 19.3972 77.5998 20.1135 78.6071 20.3038C78.9205 20.3598 79.5026 21.2552 79.5361 21.5686L80.4875 30.4668Z" fill="white"/>
<path d="M10.4987 78.0914C9.57002 78.0934 8.6551 77.8666 7.83488 77.431L2.79817 74.7336C1.35431 73.8605 0.391744 72.9315 0.302203 71.2191L0.235046 70.0998C0.111927 67.8836 0 65.9473 0 64.0222C0 62.5447 1.58936 61.8844 2.44001 61.515L2.6079 61.4366C3.24588 61.168 3.72716 61.7612 4.29799 62.388C5.13744 63.3842 5.85377 64.1229 6.71561 63.7423C7.57246 63.3413 8.40246 62.8851 9.20039 62.3768C10.2837 61.6878 11.4047 61.0601 12.5582 60.4965L14.4386 59.6458C26.6498 54.0495 47.0876 44.7595 69.7864 25.3402C70.2315 24.8899 70.6085 24.3771 70.9057 23.818C71.2525 23.1666 71.6896 22.5675 72.204 22.0384C72.4726 21.7922 72.9203 21.3221 73.3233 20.8632C73.8894 20.1345 74.5743 19.5063 75.3492 19.0052C75.6626 18.8933 76.0543 19.0052 77.1512 19.3522C77.6656 19.5247 78.1886 19.6704 78.7182 19.7887C79.3561 19.9118 80.0501 21.0534 80.0949 21.5459L81.0462 30.3993C81.1405 31.2081 81.0572 32.0278 80.802 32.801C80.5468 33.5743 80.1259 34.2826 79.5688 34.8764C79.1323 35.3465 78.6286 35.8614 78.0802 36.4098C72.8084 41.6816 56.8141 57.6759 15.86 76.4908C14.4711 77.1644 13.0105 77.6788 11.5061 78.0242C11.1728 78.0754 10.8358 78.0979 10.4987 78.0914ZM2.89891 62.5335C2.19377 62.8245 1.14165 63.2722 1.14165 64.011C1.14165 65.9025 1.25358 67.8277 1.3767 70.0438L1.44386 71.1631C1.49982 72.2824 1.9923 72.9315 3.369 73.771L8.39451 76.4348C9.27571 76.9152 10.2955 77.0773 11.2822 76.8937C12.6945 76.5745 14.0652 76.0938 15.3676 75.4611C56.1089 56.7469 72.0361 40.8309 77.2295 35.6039C77.778 35.0555 78.2593 34.5518 78.6958 34.0817C79.1442 33.616 79.4864 33.0588 79.699 32.4482C79.9115 31.8376 79.9893 31.1883 79.927 30.5448L78.9756 21.7026C78.8526 21.3978 78.6656 21.123 78.4271 20.8967C77.8778 20.7798 77.3358 20.6303 76.8042 20.449C76.4369 20.3219 76.0633 20.2136 75.6849 20.1244C75.1398 20.5842 74.6204 21.0737 74.1292 21.5907C73.6591 22.0944 73.2113 22.5645 72.898 22.8443C72.459 23.2956 72.0825 23.8038 71.7787 24.3553C71.453 25.0314 71.0266 25.6541 70.5139 26.2021C47.692 45.7221 27.1646 55.0792 14.9087 60.6755L13.0619 61.515C11.9342 62.0619 10.8359 62.6671 9.77121 63.3282C8.92746 63.8673 8.04876 64.3497 7.14093 64.7721C5.47322 65.4884 4.19726 64.011 3.44735 63.1155C3.27539 62.9116 3.0923 62.7173 2.89891 62.5335Z" fill="#1F2024"/>
<path d="M78.3475 19.8561C80.7875 21.2104 78.9743 22.9341 78.9743 22.9341C77.6312 24.2996 76.3888 25.4412 75.0345 26.6165C73.4227 28.0267 71.576 29.4594 70.4455 30.3212C60.4392 37.9547 48.1273 50.2106 14.4149 66.2945C14.4149 66.2945 11.0571 68.3428 8.81857 67.1788L1.39782 63.2613C1.34469 63.2427 1.2978 63.2097 1.26243 63.1659C1.22706 63.1221 1.20463 63.0694 1.19765 63.0135C1.19067 62.9577 1.19942 62.901 1.22292 62.8498C1.24642 62.7987 1.28374 62.7551 1.33066 62.7241C1.97471 62.335 2.65279 62.0053 3.35654 61.7391C6.07636 60.6198 35.0542 50.1883 70.1209 19.3748C70.5461 19.0018 71.0554 18.7377 71.6052 18.6051C72.155 18.4725 72.7288 18.4755 73.2772 18.6137L78.3475 19.8561Z" fill="white"/>
<path d="M10.3985 68.0969C9.75021 68.108 9.1089 67.962 8.52928 67.6715L1.11972 63.7653C0.98167 63.7031 0.863011 63.6047 0.776313 63.4806C0.689615 63.3564 0.638107 63.2112 0.627243 63.0602C0.611374 62.8999 0.64071 62.7384 0.711928 62.594C0.783145 62.4496 0.893395 62.328 1.03018 62.2431C1.71241 61.8432 2.42762 61.5024 3.16798 61.2246L3.62688 61.0455C13.4093 57.2735 39.4435 45.6108 69.7757 18.961C70.2704 18.5234 70.8639 18.2124 71.5053 18.0545C72.1466 17.8966 72.8167 17.8965 73.458 18.0544L78.4276 19.3527C78.4756 19.3623 78.5213 19.3813 78.5619 19.4087C78.9563 19.5787 79.3038 19.8415 79.5747 20.1747C79.8456 20.508 80.0319 20.9018 80.1177 21.3226C80.1372 21.7034 80.0755 22.084 79.9365 22.4391C79.7976 22.7942 79.5846 23.1157 79.3118 23.3821C78.0247 24.6804 76.8047 25.8221 75.3496 27.0869C73.8946 28.3516 72.059 29.7955 70.727 30.814C69.0929 32.0676 67.3692 33.4667 65.5448 34.9553C55.9639 42.6895 42.8684 53.3337 14.6517 66.7985C13.3566 67.5616 11.8989 68.0066 10.3985 68.0969ZM1.99275 63.0042L9.04414 66.709C10.6559 67.5484 13.2526 66.3732 14.1256 65.8471C42.264 52.4159 55.3147 41.8164 64.8397 34.0711C66.6753 32.5825 68.399 31.1834 70.0443 29.9186C71.365 28.9001 73.0775 27.5681 74.6221 26.225C76.1667 24.8819 77.23 23.8298 78.5283 22.5426C78.6782 22.3969 78.7979 22.223 78.8805 22.0309C78.9631 21.8389 79.007 21.6324 79.0096 21.4234C79.0096 21.054 78.6515 20.707 78.0806 20.3824L73.167 19.1401C72.7063 19.0235 72.2241 19.0206 71.762 19.1318C71.2999 19.2429 70.8717 19.4647 70.5144 19.778C40.0255 46.5733 13.8458 58.2921 4.00743 62.0864L3.55973 62.2655C3.02235 62.4784 2.49898 62.7252 1.99275 63.0042ZM1.55624 62.7803H1.6122H1.55624Z" fill="#1F2024"/>
<path d="M85.523 15.9675L84.4043 16.0034L84.6577 23.8902L85.7764 23.8543L85.523 15.9675Z" fill="#1F2024"/>
</svg>
