<svg width="121" height="104" viewBox="0 0 121 104" fill="none" xmlns="http://www.w3.org/2000/svg">
<g clip-path="url(#clip0_238_1434)">
<path fill-rule="evenodd" clip-rule="evenodd" d="M10.45 14.8067C16.9309 5.67335 25.9298 -0.0366211 35.9221 -0.0366211H35.9298V-0.0365624C42.4397 0.0631545 48.7108 2.38113 53.6585 6.51884C64.5572 15.2198 71.8603 31.647 71.8412 50.3735C71.8411 64.2585 67.8474 76.8512 61.367 85.9856C54.8873 95.1189 45.8908 100.829 35.9031 100.829H35.9026C31.7378 100.825 27.6331 99.8537 23.9272 97.9953C9.90973 91.0515 -0.0253906 72.3145 -0.0253906 50.4193C-0.0253906 36.5341 3.9683 23.9412 10.45 14.8067ZM11.2655 15.3854C4.91721 24.332 0.974609 36.7171 0.974609 50.4193C0.974609 72.0738 10.8036 90.3792 24.3725 97.0999L24.3747 97.101C27.9413 98.8897 31.893 99.8249 35.9036 99.829C45.4812 99.8288 54.2035 94.3546 60.5514 85.407C66.8986 76.4604 70.8412 64.0752 70.8412 50.373V50.3725C70.86 31.8733 63.6406 15.7648 53.0302 7.29682L53.0212 7.28961L53.0213 7.28951C48.2516 3.29905 42.2019 1.0605 35.9183 0.963379C26.3372 0.964836 17.6139 6.43884 11.2655 15.3854ZM20.1971 26.0747C16.1258 32.2835 13.591 40.8897 13.591 50.4193C13.591 59.4959 15.8893 67.7236 19.6359 73.8382C17.449 68.4568 16.189 62.116 16.189 55.3324C16.189 45.6366 18.7541 36.8339 22.9347 30.44C27.1125 24.0504 32.9456 20.0144 39.4726 20.0144H39.4734C40.97 20.0169 42.4585 20.2296 43.8933 20.646L43.9051 20.6494L43.905 20.6495C46.0989 21.3447 48.1447 22.3964 49.9608 23.7509C47.1399 20.2263 43.7456 17.7582 40.0646 16.6934L40.0642 16.6933C38.7196 16.3031 37.3243 16.1037 35.9213 16.1013C29.8413 16.1016 24.271 19.8619 20.1971 26.0747ZM19.3609 25.5264C23.5506 19.137 29.3955 15.1013 35.9221 15.1013H35.923C37.4194 15.1038 38.9078 15.3165 40.3425 15.7328C45.5324 17.234 50.0854 21.3188 53.3759 26.9936L52.5608 27.5663C50.2221 24.7865 47.1161 22.7172 43.6088 21.6047C42.2663 21.2157 40.8733 21.0168 39.4726 21.0144C33.3926 21.0144 27.8339 24.7744 23.7716 30.9873C19.7121 37.196 17.189 45.8023 17.189 55.3324C17.189 64.1628 19.3633 72.1941 22.9113 78.2548L25.3726 82.4592L22.1086 78.8424C16.3029 72.4091 12.591 62.0555 12.591 50.4193C12.591 40.723 15.1683 31.9202 19.3609 25.5264Z" fill="#1F2024"/>
<path d="M77.0184 54.0441C77.0184 81.6316 61.1553 104 41.5804 104C35.1784 103.892 29.0178 101.596 24.1699 97.5111C27.8063 99.3347 31.8346 100.288 35.9225 100.292C55.4879 100.292 71.3605 77.9236 71.3605 50.3361C71.3605 31.6756 64.0982 15.4068 53.3235 6.82275C67.136 13.7474 77.0184 32.2689 77.0184 54.0441Z" fill="#1F2024"/>
<path d="M52.9433 27.2442C50.5416 24.3894 47.3527 22.2663 43.7539 21.126C42.3642 20.7227 40.9223 20.5166 39.4725 20.5142C26.8655 20.5142 16.6888 36.1063 16.6888 55.3322C16.6888 64.2407 18.8818 72.3612 22.4797 78.5072C16.7838 72.1758 13.1289 61.951 13.1289 50.4099C13.1289 31.1839 23.3531 15.5918 35.96 15.5918C37.4098 15.5943 38.8517 15.8003 40.2414 16.2036C45.2348 17.6683 49.6776 21.6451 52.9433 27.2442Z" fill="#1F2024"/>
<path fill-rule="evenodd" clip-rule="evenodd" d="M120.999 50.9189H89.1309V49.9189H120.999V50.9189Z" fill="#1F2024"/>
<path fill-rule="evenodd" clip-rule="evenodd" d="M105.06 35.1973H89.1309V34.1973H105.06V35.1973Z" fill="#1F2024"/>
<path fill-rule="evenodd" clip-rule="evenodd" d="M113.9 20.1616H89.0469V19.1616H113.9V20.1616Z" fill="#1F2024"/>
<path fill-rule="evenodd" clip-rule="evenodd" d="M113.9 81.6768H89.0469V80.6768H113.9V81.6768Z" fill="#1F2024"/>
<path fill-rule="evenodd" clip-rule="evenodd" d="M105.062 66.6416H89.0469V65.6416H105.062V66.6416Z" fill="#1F2024"/>
<path fill-rule="evenodd" clip-rule="evenodd" d="M51.2832 75.0503C55.413 68.8115 58 60.1346 58 50.5C58 40.8654 55.413 32.1885 51.2832 25.9497C47.1482 19.7033 41.5476 16 35.5 16C29.4524 16 23.8518 19.7033 19.7168 25.9497C15.587 32.1885 13 40.8654 13 50.5C13 60.1346 15.587 68.8115 19.7168 75.0503C23.8518 81.2967 29.4524 85 35.5 85C41.5476 85 47.1482 81.2967 51.2832 75.0503ZM35.5 86C48.4787 86 59 70.1061 59 50.5C59 30.8939 48.4787 15 35.5 15C22.5213 15 12 30.8939 12 50.5C12 70.1061 22.5213 86 35.5 86Z" fill="#1F2024"/>
</g>
<defs>
<clipPath id="clip0_238_1434">
<rect width="121" height="104" fill="white"/>
</clipPath>
</defs>
</svg>
