<svg width="197" height="201" viewBox="0 0 197 201" fill="none" xmlns="http://www.w3.org/2000/svg">
<mask id="path-1-inside-1_256_1532" fill="white">
<path fill-rule="evenodd" clip-rule="evenodd" d="M123.141 0H176.878C187.924 0 196.878 8.95431 196.878 20V73.7377H176.911C177.898 75.9957 178.445 78.4895 178.445 81.1112C178.445 91.2922 170.192 99.5456 160.011 99.5456C149.83 99.5456 141.576 91.2922 141.576 81.1112C141.576 78.4895 142.123 75.9957 143.11 73.7377H123.141V53.7695C125.399 54.7561 127.893 55.3034 130.514 55.3034C140.696 55.3034 148.949 47.05 148.949 36.869C148.949 26.6879 140.696 18.4346 130.514 18.4346C127.893 18.4346 125.399 18.9819 123.141 19.9685V0Z"/>
</mask>
<path fill-rule="evenodd" clip-rule="evenodd" d="M123.141 0H176.878C187.924 0 196.878 8.95431 196.878 20V73.7377H176.911C177.898 75.9957 178.445 78.4895 178.445 81.1112C178.445 91.2922 170.192 99.5456 160.011 99.5456C149.83 99.5456 141.576 91.2922 141.576 81.1112C141.576 78.4895 142.123 75.9957 143.11 73.7377H123.141V53.7695C125.399 54.7561 127.893 55.3034 130.514 55.3034C140.696 55.3034 148.949 47.05 148.949 36.869C148.949 26.6879 140.696 18.4346 130.514 18.4346C127.893 18.4346 125.399 18.9819 123.141 19.9685V0Z" fill="#0074FF"/>
<path d="M123.141 0V-1H122.141V0H123.141ZM196.878 73.7377V74.7377H197.878V73.7377H196.878ZM176.911 73.7377V72.7377H175.383L175.995 74.138L176.911 73.7377ZM143.11 73.7377L144.026 74.138L144.638 72.7377H143.11V73.7377ZM123.141 73.7377H122.141V74.7377H123.141V73.7377ZM123.141 53.7695L123.541 52.8531L122.141 52.2412V53.7695H123.141ZM123.141 19.9685H122.141V21.4967L123.541 20.8849L123.141 19.9685ZM176.878 -1H123.141V1H176.878V-1ZM197.878 20C197.878 8.40203 188.476 -1 176.878 -1V1C187.372 1 195.878 9.50659 195.878 20H197.878ZM197.878 73.7377V20H195.878V73.7377H197.878ZM176.911 74.7377H196.878V72.7377H176.911V74.7377ZM175.995 74.138C176.927 76.2722 177.445 78.6299 177.445 81.1112H179.445C179.445 78.3492 178.868 75.7192 177.828 73.3373L175.995 74.138ZM177.445 81.1112C177.445 90.7399 169.639 98.5456 160.011 98.5456V100.546C170.744 100.546 179.445 91.8445 179.445 81.1112H177.445ZM160.011 98.5456C150.382 98.5456 142.576 90.7399 142.576 81.1112H140.576C140.576 91.8445 149.277 100.546 160.011 100.546V98.5456ZM142.576 81.1112C142.576 78.6299 143.094 76.2722 144.026 74.138L142.194 73.3373C141.153 75.7192 140.576 78.3492 140.576 81.1112H142.576ZM123.141 74.7377H143.11V72.7377H123.141V74.7377ZM122.141 53.7695V73.7377H124.141V53.7695H122.141ZM130.514 54.3034C128.033 54.3034 125.675 53.7856 123.541 52.8531L122.74 54.6858C125.122 55.7266 127.752 56.3034 130.514 56.3034V54.3034ZM147.949 36.869C147.949 46.4978 140.143 54.3034 130.514 54.3034V56.3034C141.248 56.3034 149.949 47.6023 149.949 36.869H147.949ZM130.514 19.4346C140.143 19.4346 147.949 27.2402 147.949 36.869H149.949C149.949 26.1357 141.248 17.4346 130.514 17.4346V19.4346ZM123.541 20.8849C125.675 19.9524 128.033 19.4346 130.514 19.4346V17.4346C127.752 17.4346 125.122 18.0114 122.74 19.0522L123.541 20.8849ZM122.141 0V19.9685H124.141V0H122.141Z" fill="white" mask="url(#path-1-inside-1_256_1532)"/>
<mask id="path-3-inside-2_256_1532" fill="white">
<path fill-rule="evenodd" clip-rule="evenodd" d="M196.881 73.7383L196.881 127.476C196.881 138.522 187.927 147.476 176.881 147.476L123.143 147.476L123.143 127.507C120.885 128.493 118.391 129.041 115.769 129.041C105.588 129.041 97.3343 120.787 97.3343 110.606C97.3343 100.425 105.588 92.1719 115.769 92.1719C118.391 92.1719 120.885 92.7193 123.143 93.7061L123.143 73.7383L143.112 73.7383C142.126 75.9964 141.578 78.4904 141.578 81.1122C141.578 91.2932 149.832 99.5466 160.013 99.5466C170.194 99.5466 178.447 91.2932 178.447 81.1122C178.447 78.4904 177.9 75.9964 176.913 73.7383L196.881 73.7383Z"/>
</mask>
<path fill-rule="evenodd" clip-rule="evenodd" d="M196.881 73.7383L196.881 127.476C196.881 138.522 187.927 147.476 176.881 147.476L123.143 147.476L123.143 127.507C120.885 128.493 118.391 129.041 115.769 129.041C105.588 129.041 97.3343 120.787 97.3343 110.606C97.3343 100.425 105.588 92.1719 115.769 92.1719C118.391 92.1719 120.885 92.7193 123.143 93.7061L123.143 73.7383L143.112 73.7383C142.126 75.9964 141.578 78.4904 141.578 81.1122C141.578 91.2932 149.832 99.5466 160.013 99.5466C170.194 99.5466 178.447 91.2932 178.447 81.1122C178.447 78.4904 177.9 75.9964 176.913 73.7383L196.881 73.7383Z" fill="#70B1FF"/>
<path d="M196.881 73.7383L197.881 73.7383L197.881 72.7383L196.881 72.7383L196.881 73.7383ZM123.143 147.476L122.143 147.476L122.143 148.476L123.143 148.476L123.143 147.476ZM123.143 127.507L124.143 127.507L124.143 125.978L122.743 126.59L123.143 127.507ZM123.143 93.7061L122.743 94.6224L124.143 95.2344L124.143 93.7061L123.143 93.7061ZM123.143 73.7383L123.143 72.7383L122.143 72.7383L122.143 73.7383L123.143 73.7383ZM143.112 73.7383L144.029 74.1387L144.641 72.7383L143.112 72.7383L143.112 73.7383ZM176.913 73.7383L176.913 72.7383L175.385 72.7383L175.997 74.1387L176.913 73.7383ZM197.881 127.476L197.881 73.7383L195.881 73.7383L195.881 127.476L197.881 127.476ZM176.881 148.476C188.479 148.476 197.881 139.074 197.881 127.476L195.881 127.476C195.881 137.969 187.374 146.476 176.881 146.476L176.881 148.476ZM123.143 148.476L176.881 148.476L176.881 146.476L123.143 146.476L123.143 148.476ZM122.143 127.507L122.143 147.476L124.143 147.476L124.143 127.507L122.143 127.507ZM122.743 126.59C120.608 127.523 118.25 128.041 115.769 128.041L115.769 130.041C118.531 130.041 121.161 129.464 123.544 128.423L122.743 126.59ZM115.769 128.041C106.14 128.041 98.3343 120.235 98.3343 110.606L96.3343 110.606C96.3343 121.34 105.035 130.041 115.769 130.041L115.769 128.041ZM98.3343 110.606C98.3343 100.978 106.14 93.1719 115.769 93.1719L115.769 91.1719C105.035 91.1719 96.3343 99.873 96.3343 110.606L98.3343 110.606ZM115.769 93.1719C118.25 93.1719 120.608 93.6898 122.743 94.6224L123.544 92.7897C121.161 91.7488 118.531 91.1719 115.769 91.1719L115.769 93.1719ZM122.143 73.7383L122.143 93.7061L124.143 93.7061L124.143 73.7383L122.143 73.7383ZM143.112 72.7383L123.143 72.7383L123.143 74.7383L143.112 74.7383L143.112 72.7383ZM142.578 81.1122C142.578 78.6307 143.096 76.2729 144.029 74.1387L142.196 73.3379C141.155 75.7199 140.578 78.35 140.578 81.1122L142.578 81.1122ZM160.013 98.5466C150.384 98.5466 142.578 90.7409 142.578 81.1122L140.578 81.1122C140.578 91.8455 149.28 100.547 160.013 100.547L160.013 98.5466ZM177.447 81.1122C177.447 90.7409 169.642 98.5466 160.013 98.5466L160.013 100.547C170.746 100.547 179.447 91.8455 179.447 81.1122L177.447 81.1122ZM175.997 74.1387C176.929 76.2729 177.447 78.6307 177.447 81.1122L179.447 81.1122C179.447 78.35 178.87 75.7199 177.83 73.3379L175.997 74.1387ZM196.881 72.7383L176.913 72.7383L176.913 74.7383L196.881 74.7383L196.881 72.7383Z" fill="white" mask="url(#path-3-inside-2_256_1532)"/>
<mask id="path-5-inside-3_256_1532" fill="white">
<path fill-rule="evenodd" clip-rule="evenodd" d="M49.4043 73.7383L49.4043 20.0006C49.4043 8.95489 58.3586 0.0005952 69.4043 0.000595331L123.142 0.000595972L123.142 19.9691C125.4 18.9823 127.894 18.4349 130.516 18.4349C140.698 18.4349 148.951 26.6882 148.951 36.8693C148.951 47.0503 140.698 55.3037 130.516 55.3037C127.894 55.3037 125.4 54.7563 123.142 53.7695L123.142 73.7383L103.173 73.7383C104.159 71.4802 104.707 68.9862 104.707 66.3644C104.707 56.1834 96.4534 47.93 86.2723 47.93C76.0913 47.93 67.8379 56.1834 67.8379 66.3644C67.8379 68.9862 68.3852 71.4802 69.3718 73.7383L49.4043 73.7383Z"/>
</mask>
<path fill-rule="evenodd" clip-rule="evenodd" d="M49.4043 73.7383L49.4043 20.0006C49.4043 8.95489 58.3586 0.0005952 69.4043 0.000595331L123.142 0.000595972L123.142 19.9691C125.4 18.9823 127.894 18.4349 130.516 18.4349C140.698 18.4349 148.951 26.6882 148.951 36.8693C148.951 47.0503 140.698 55.3037 130.516 55.3037C127.894 55.3037 125.4 54.7563 123.142 53.7695L123.142 73.7383L103.173 73.7383C104.159 71.4802 104.707 68.9862 104.707 66.3644C104.707 56.1834 96.4534 47.93 86.2723 47.93C76.0913 47.93 67.8379 56.1834 67.8379 66.3644C67.8379 68.9862 68.3852 71.4802 69.3718 73.7383L49.4043 73.7383Z" fill="#004291"/>
<path d="M49.4043 73.7383L48.4043 73.7383L48.4043 74.7383L49.4043 74.7383L49.4043 73.7383ZM123.142 0.000595972L124.142 0.000595984L124.142 -0.999404L123.142 -0.999404L123.142 0.000595972ZM123.142 19.9691L122.142 19.9691L122.142 21.4973L123.542 20.8854L123.142 19.9691ZM123.142 53.7695L123.542 52.8532L122.142 52.2412L122.142 53.7695L123.142 53.7695ZM123.142 73.7383L123.142 74.7383L124.142 74.7383L124.142 73.7383L123.142 73.7383ZM103.173 73.7383L102.256 73.3379L101.645 74.7383L103.173 74.7383L103.173 73.7383ZM69.3718 73.7383L69.3718 74.7383L70.9001 74.7383L70.2882 73.3379L69.3718 73.7383ZM48.4043 20.0006L48.4043 73.7383L50.4043 73.7383L50.4043 20.0006L48.4043 20.0006ZM69.4043 -0.999405C57.8063 -0.999405 48.4043 8.4026 48.4043 20.0006L50.4043 20.0006C50.4043 9.50717 58.9109 1.0006 69.4043 1.0006L69.4043 -0.999405ZM123.142 -0.999404L69.4043 -0.999405L69.4043 1.0006L123.142 1.0006L123.142 -0.999404ZM124.142 19.9691L124.142 0.000595984L122.142 0.00059596L122.142 19.9691L124.142 19.9691ZM123.542 20.8854C125.677 19.9528 128.035 19.4349 130.516 19.4349L130.516 17.4349C127.754 17.4349 125.124 18.0118 122.742 19.0527L123.542 20.8854ZM130.516 19.4349C140.145 19.4349 147.951 27.2405 147.951 36.8693L149.951 36.8693C149.951 26.136 141.25 17.4349 130.516 17.4349L130.516 19.4349ZM147.951 36.8693C147.951 46.4981 140.145 54.3037 130.516 54.3037L130.516 56.3037C141.25 56.3037 149.951 47.6026 149.951 36.8693L147.951 36.8693ZM130.516 54.3037C128.035 54.3037 125.677 53.7858 123.542 52.8532L122.742 54.6858C125.124 55.7268 127.754 56.3037 130.516 56.3037L130.516 54.3037ZM124.142 73.7383L124.142 53.7695L122.142 53.7695L122.142 73.7383L124.142 73.7383ZM103.173 74.7383L123.142 74.7383L123.142 72.7383L103.173 72.7383L103.173 74.7383ZM103.707 66.3644C103.707 68.8458 103.189 71.2037 102.256 73.3379L104.089 74.1387C105.13 71.7567 105.707 69.1266 105.707 66.3644L103.707 66.3644ZM86.2723 48.93C95.9011 48.93 103.707 56.7356 103.707 66.3644L105.707 66.3644C105.707 55.6311 97.0056 46.93 86.2723 46.93L86.2723 48.93ZM68.8379 66.3644C68.8379 56.7356 76.6435 48.93 86.2723 48.93L86.2723 46.93C75.539 46.93 66.8379 55.6311 66.8379 66.3644L68.8379 66.3644ZM70.2882 73.3379C69.3557 71.2037 68.8379 68.8458 68.8379 66.3644L66.8379 66.3644C66.8379 69.1266 67.4147 71.7567 68.4555 74.1387L70.2882 73.3379ZM49.4043 74.7383L69.3718 74.7383L69.3718 72.7383L49.4043 72.7383L49.4043 74.7383Z" fill="white" mask="url(#path-5-inside-3_256_1532)"/>
<mask id="path-7-inside-4_256_1532" fill="white">
<path fill-rule="evenodd" clip-rule="evenodd" d="M115.676 161.381L70.3537 190.254C61.0378 196.189 48.6747 193.448 42.7399 184.132L13.8669 138.81L30.7078 128.081C28.6621 126.707 26.8603 124.897 25.4515 122.686C19.9812 114.099 22.5076 102.704 31.0942 97.2336C39.6809 91.7633 51.0762 94.2897 56.5465 102.876C57.9553 105.088 58.8337 107.486 59.2148 109.92L76.0569 99.1909L86.7858 116.032C84.3513 116.413 81.9539 117.292 79.7427 118.7C71.156 124.171 68.6297 135.566 74.0999 144.153C79.5701 152.739 90.9655 155.266 99.5521 149.795C101.763 148.387 103.573 146.585 104.947 144.54L115.676 161.381Z"/>
</mask>
<path fill-rule="evenodd" clip-rule="evenodd" d="M115.676 161.381L70.3537 190.254C61.0378 196.189 48.6747 193.448 42.7399 184.132L13.8669 138.81L30.7078 128.081C28.6621 126.707 26.8603 124.897 25.4515 122.686C19.9812 114.099 22.5076 102.704 31.0942 97.2336C39.6809 91.7633 51.0762 94.2897 56.5465 102.876C57.9553 105.088 58.8337 107.486 59.2148 109.92L76.0569 99.1909L86.7858 116.032C84.3513 116.413 81.9539 117.292 79.7427 118.7C71.156 124.171 68.6297 135.566 74.0999 144.153C79.5701 152.739 90.9655 155.266 99.5521 149.795C101.763 148.387 103.573 146.585 104.947 144.54L115.676 161.381Z" fill="#002653"/>
<path d="M70.3537 190.254L69.8164 189.41L70.3537 190.254ZM115.676 161.381L116.213 162.224L117.056 161.687L116.519 160.844L115.676 161.381ZM42.7399 184.132L41.8965 184.669L42.7399 184.132ZM13.8669 138.81L13.3297 137.966L12.4863 138.504L13.0236 139.347L13.8669 138.81ZM30.7078 128.081L31.2451 128.924L32.534 128.103L31.2655 127.251L30.7078 128.081ZM59.2148 109.92L58.2268 110.075L58.4631 111.585L59.7521 110.764L59.2148 109.92ZM76.0569 99.1909L76.9003 98.6536L76.363 97.8102L75.5196 98.3475L76.0569 99.1909ZM86.7858 116.032L86.9405 117.02L88.4503 116.784L87.6292 115.495L86.7858 116.032ZM104.947 144.54L105.79 144.002L104.969 142.714L104.117 143.982L104.947 144.54ZM70.891 191.097L116.213 162.224L115.138 160.537L69.8164 189.41L70.891 191.097ZM41.8965 184.669C48.1281 194.451 61.1093 197.329 70.891 191.097L69.8164 189.41C60.9663 195.048 49.2214 192.445 43.5833 183.595L41.8965 184.669ZM13.0236 139.347L41.8965 184.669L43.5833 183.595L14.7103 138.272L13.0236 139.347ZM30.1705 127.238L13.3297 137.966L14.4042 139.653L31.2451 128.924L30.1705 127.238ZM31.2655 127.251C29.3321 125.952 27.6283 124.242 26.2949 122.148L24.6081 123.223C26.0923 125.553 27.9922 127.461 30.1501 128.911L31.2655 127.251ZM26.2949 122.148C21.1214 114.028 23.5107 103.25 31.6315 98.077L30.557 96.3902C21.5045 102.157 18.8411 114.171 24.6081 123.223L26.2949 122.148ZM31.6315 98.077C39.7524 92.9035 50.5296 95.2928 55.7031 103.414L57.3899 102.339C51.6229 93.2866 39.6094 90.6232 30.557 96.3902L31.6315 98.077ZM55.7031 103.414C57.0365 105.507 57.8666 107.774 58.2268 110.075L60.2028 109.766C59.8008 107.197 58.8741 104.669 57.3899 102.339L55.7031 103.414ZM75.5196 98.3475L58.6775 109.077L59.7521 110.764L76.5942 100.034L75.5196 98.3475ZM87.6292 115.495L76.9003 98.6536L75.2135 99.7282L85.9425 116.569L87.6292 115.495ZM80.28 119.544C82.3728 118.211 84.6395 117.38 86.9405 117.02L86.6312 115.044C84.0631 115.446 81.535 116.373 79.2054 117.857L80.28 119.544ZM74.9433 143.615C69.7698 135.494 72.1591 124.717 80.28 119.544L79.2054 117.857C70.153 123.624 67.4896 135.637 73.2565 144.69L74.9433 143.615ZM99.0148 148.952C90.894 154.125 80.1168 151.736 74.9433 143.615L73.2565 144.69C79.0235 153.742 91.037 156.406 100.089 150.639L99.0148 148.952ZM104.117 143.982C102.818 145.915 101.108 147.619 99.0148 148.952L100.089 150.639C102.419 149.155 104.327 147.255 105.777 145.097L104.117 143.982ZM116.519 160.844L105.79 144.002L104.104 145.077L114.832 161.918L116.519 160.844Z" fill="white" mask="url(#path-7-inside-4_256_1532)"/>
<path d="M48.3098 167.909C46.9432 168.781 45.5029 169.043 43.989 168.693C42.4692 168.335 41.2703 167.467 40.3921 166.092C39.5196 164.725 39.2406 163.277 39.555 161.748C39.8694 160.218 40.7323 159.003 42.1439 158.102C42.962 157.58 43.7347 157.263 44.4618 157.154C45.1979 157.038 45.9698 157.058 46.7775 157.213L46.4956 159.12C45.1511 158.878 44.0203 159.049 43.1033 159.634C42.2042 160.208 41.6646 161.008 41.4845 162.035C41.3133 163.055 41.5291 164.037 42.1318 164.981C42.7287 165.916 43.5334 166.523 44.5458 166.8C45.5524 167.069 46.5008 166.919 47.3909 166.35C47.9303 166.006 48.3437 165.603 48.631 165.141C48.9125 164.67 49.1416 164.088 49.3181 163.393L51.0723 163.791C50.8977 164.687 50.6027 165.464 50.1872 166.122C49.7717 166.779 49.146 167.375 48.3098 167.909Z" fill="white"/>
<path d="M52.9709 164.705L51.0548 152.546L52.5922 151.564L62.8157 158.42L61.0625 159.54L58.65 157.872L54.1861 160.722L54.6701 163.621L52.9709 164.705ZM53.8545 158.864L57.1046 156.789L53.0621 154.055L53.8545 158.864Z" fill="white"/>
<path d="M67.6799 155.505C66.1784 156.463 64.5443 156.798 62.7777 156.508L63.018 154.685C64.4843 154.9 65.739 154.675 66.7819 154.009C67.2943 153.682 67.6301 153.316 67.789 152.91C67.9512 152.491 67.9146 152.096 67.6793 151.728C67.4554 151.377 67.1336 151.19 66.7139 151.167C66.2885 151.135 65.59 151.29 64.6186 151.632C63.3553 152.071 62.3456 152.254 61.5896 152.18C60.8368 152.091 60.1964 151.633 59.6684 150.805C59.1518 149.996 59.034 149.148 59.3149 148.26C59.5901 147.363 60.1997 146.613 61.1438 146.01C62.4384 145.184 63.8328 144.85 65.3269 145.01L65.2375 146.832C63.9521 146.742 62.8914 146.964 62.0553 147.497C61.5787 147.802 61.27 148.15 61.1291 148.544C60.9971 148.932 61.0373 149.292 61.2497 149.625C61.485 149.994 61.817 150.187 62.2457 150.204C62.6777 150.207 63.4076 150.032 64.4354 149.679C65.639 149.265 66.6185 149.115 67.3738 149.227C68.138 149.334 68.7641 149.77 69.252 150.534C69.8087 151.406 69.9376 152.292 69.6387 153.191C69.3398 154.091 68.6868 154.862 67.6799 155.505Z" fill="white"/>
</svg>
